<svg width="540" height="540" viewBox="0 0 540 540" fill="none" xmlns="http://www.w3.org/2000/svg">
<rect width="540" height="540" fill="#C517EC"/>
<path fill-rule="evenodd" clip-rule="evenodd" d="M270 313C377.143 313 464 226.143 464 119C464 74.1514 448.781 32.8573 423.227 0H116.773C91.2185 32.8573 76 74.1514 76 119C76 226.143 162.857 313 270 313Z" fill="#331539"/>
<path d="M28.6641 257.25L29.1914 266.449L27.082 294.105L26.4961 290.766L28.6641 257.25ZM74.0742 288.188C76.6914 288.461 79.7188 289.105 83.1562 290.121C85.8125 291.098 88.4883 292.855 91.1836 295.395L93.3516 298.676C93.7031 296.566 94.4062 294.379 95.4609 292.113L104.543 292.758L106.711 292.113L109.348 293.402L106.711 324.984L107.238 326.977L104.016 364.477C103.078 367.602 101.652 370.883 99.7383 374.32C98.1758 377.055 96.0469 379.672 93.3516 382.172C90.6953 383.852 87.668 385.18 84.2695 386.156L72.4922 386.801C69.2891 386.371 65.8906 385.492 62.2969 384.164C59.3672 383.578 56.5352 381.84 53.8008 378.949C54.4258 375.59 55.4805 371.859 56.9648 367.758L58.0195 363.773C59.6992 365.023 61.6719 366.137 63.9375 367.113C66.3594 368.402 69.2109 369.496 72.4922 370.395C75.6172 369.965 78.9961 369.086 82.6289 367.758C84.6602 365.453 86.2617 362.387 87.4336 358.559L87.9609 352.641L84.7969 355.219C81.9844 356.664 78.7617 357.543 75.1289 357.855C72.082 357.66 69.2305 357.016 66.5742 355.922C64.0742 354.438 61.5938 352.465 59.1328 350.004C57.375 347.465 55.7734 344.398 54.3281 340.805C53.3125 337.484 52.5898 333.754 52.1602 329.613L51.6328 322.348L52.7461 320.414L52.1602 319.711L52.7461 317.777C53.2148 314.809 53.918 311.742 54.8555 308.578L59.1328 298.676L66.0469 292.113C68.5469 291.527 71.2227 290.219 74.0742 288.188ZM86.3789 288.832H87.4336L86.9062 290.121L86.3789 288.832ZM25.9688 300.023L26.4961 308.578L24.9141 324.34V332.25L23.8594 326.977L24.3867 324.984L25.9688 300.023ZM79.4062 305.941L74.6016 308.578L71.9648 313.793C70.8711 317.113 70.1484 321.059 69.7969 325.629L70.3242 332.895C71.1055 334.379 71.8281 336.137 72.4922 338.168C75.1875 340.16 78.3906 341.254 82.1016 341.449L86.9062 338.812L89.0742 333.539L90.1289 321.059C89.8555 317.973 89.3281 314.672 88.5469 311.156C86.2422 308.5 83.1953 306.762 79.4062 305.941ZM120.07 323.695L120.598 326.977L119.543 326.332L120.07 323.695ZM119.543 329.613L120.07 347.367L119.543 355.219C119.387 357.289 118.84 359.047 117.902 360.492L119.016 344.086L118.488 342.094L119.543 329.613ZM23.332 333.539L24.3867 341.449L23.332 350.004L22.8047 345.375L23.332 333.539ZM22.2188 357.855L22.8047 360.492L22.2188 367.758L21.6914 360.492L22.2188 357.855ZM18.5273 412.465L19.0547 416.391L18.5273 417.68V412.465ZM17.9414 419.027L18.5273 425.59V432.855L17.9414 419.027ZM187.688 273.539L190.031 274.477L192.609 274.945H194.953V275.883L195.422 278.461V281.742L195.656 283.617L195.188 284.32L192.375 284.555C191.984 285.062 191.75 285.688 191.672 286.43L191.906 291.352H192.141L191.906 292.055L192.609 299.789C192.609 300.688 193.078 301.234 194.016 301.43L195.891 301.195L196.594 301.43L197.297 304.008L204.328 362.836L204.562 364.008L203.625 363.07L198.469 352.523C198.156 351.898 197.766 351.273 197.297 350.648L193.078 342.211L191.906 340.336L190.969 337.992L186.75 329.789C186.359 329.203 185.969 328.5 185.578 327.68L179.25 315.258C178.938 314.633 178.547 314.008 178.078 313.383C177.844 312.641 177.531 311.859 177.141 311.039L176.203 308.93L175.031 307.055C174.797 306.312 174.484 305.531 174.094 304.711L172.219 300.492C171.828 299.906 171.438 299.203 171.047 298.383L168 292.055L166.828 290.18L165.891 287.836C165.461 287.406 164.914 287.094 164.25 286.898L152.531 287.602C151.672 287.641 150.812 287.797 149.953 288.07L149.016 290.18L129.797 349.477C129.445 350.102 129.133 350.805 128.859 351.586L121.125 375.258L120.188 377.367V378.539L121.828 378.305H123.703L124.172 378.07L124.406 378.305L133.078 377.367H136.125L138.703 376.898C139.445 376.82 140.227 376.586 141.047 376.195L145.969 359.086C146.32 358.461 146.867 357.914 147.609 357.445L173.625 355.336L179.25 355.57L181.125 360.023C181.398 360.688 181.789 361.312 182.297 361.898L183 364.242L186.047 370.805L187.219 372.68L189.797 373.148L191.203 372.914L191.672 373.148H192.375L195.188 372.68L205.5 371.977L205.969 372.68L207.375 380.648L205.969 382.289L207.375 382.758H111.75V279.398L112.219 276.586C112.688 276.039 113.312 275.57 114.094 275.18L115.266 274.945L115.734 275.18H116.203L120.656 275.648L121.359 275.414L122.062 275.648L123.938 275.414L187.688 273.539ZM169.641 276.117L168.938 276.82L170.109 277.055L172.688 276.586L169.641 276.117ZM152.062 276.82L147.141 277.523L149.484 278.695L150.891 278.461H153.234L155.578 277.758C154.562 277.211 153.391 276.898 152.062 276.82ZM116.672 277.758L116.438 278.695L116.672 281.039L117.844 281.273L122.062 280.57C122.531 279.867 122.844 279.086 123 278.227L116.672 277.758ZM158.625 313.148C159.133 313.656 159.602 314.281 160.031 315.023L163.781 322.992C164.055 323.617 164.445 324.242 164.953 324.867L170.578 337.289L171.047 339.398L154.406 340.805H151.594C151.32 340.727 151.086 340.57 150.891 340.336L158.625 313.148ZM202.688 382.055L203.859 382.289L204.328 382.055H202.688ZM213 382.289L211.828 382.758H208.547L209.953 382.523H213V382.289ZM207.023 288.305L208.957 288.656L209.602 288.305H210.246L210.891 288.656L211.184 288.305L222.609 289.301L223.605 288.949L225.891 289.301L237.316 289.945L237.961 290.238L238.254 289.945L238.957 290.238H243.82L244.816 290.59L248.391 290.941L249.387 290.59L260.812 291.234L261.457 291.586H267.316L267.961 292.523L266.965 295.805L267.609 298.441C267.219 298.52 266.906 298.734 266.672 299.086L267.609 302.016L266.32 304.594C266.242 305.102 266.027 305.648 265.676 306.234L266.965 307.23C266.926 307.465 266.711 307.68 266.32 307.875L265.031 308.168C265.148 308.715 265.48 309.047 266.027 309.164C266.379 309.555 266.594 309.984 266.672 310.453L267.316 312.738L265.676 313.441L266.027 315.668C266.301 315.199 266.73 314.77 267.316 314.379L266.32 316.02L266.672 319.301L266.965 320.238H266.32L266.672 322.23L266.027 322.523L265.676 322.23L266.672 324.164L267.316 326.449V337.875L266.965 338.871L266.32 386.449L265.324 391.957L263.098 393.305L260.461 392.953L259.172 393.305L255.539 392.953H238.254L237.961 392.602L236.965 392.953L233.391 392.602L232.102 392.953L222.961 392.309L221.672 392.602L219.035 392.309L218.039 392.602H217.102L216.105 392.309L213.469 392.602L212.824 392.309H210.539C209.484 391.059 208.957 389.418 208.957 387.387L208.605 370.16L208.254 369.516L206.672 330.668L207.023 329.73L206.672 317.66L206.32 317.016L206.672 314.086V306.234L206.32 305.238L206.672 304.945L206.32 299.73L206.672 297.738L206.32 297.094V289.301L207.023 288.305ZM208.605 292.875C208.684 293.148 208.898 293.363 209.25 293.52C209.172 293.285 208.957 293.07 208.605 292.875ZM209.895 293.52V292.875H209.602L209.895 293.52ZM220.324 293.52C220.715 293.48 220.93 293.266 220.969 292.875L220.324 293.52ZM224.895 292.875L223.957 294.164L224.25 294.809C223.469 294.574 222.707 294.145 221.965 293.52C221.223 294.379 220.793 295.355 220.676 296.449L222.316 297.445L222.609 296.449L221.965 298.441L222.609 299.086L222.316 299.73L221.32 298.734C221.281 299.281 221.066 299.828 220.676 300.375C221.34 300.648 221.887 301.078 222.316 301.664L220.969 301.02C220.617 301.215 220.402 301.547 220.324 302.016C220.402 302.953 220.617 303.93 220.969 304.945L220.031 305.59C220.656 306.254 221.418 306.898 222.316 307.523L224.25 310.453L222.961 311.801V310.16L220.676 312.094L221.965 313.09C221.105 313.637 220.559 314.398 220.324 315.375L220.031 317.66C220.109 318.559 220.324 319.418 220.676 320.238C220.598 320.512 220.383 320.746 220.031 320.941L220.324 322.875L219.68 323.168L220.324 323.871L219.68 327.738L220.324 327.445L219.68 329.379C219.758 329.613 219.973 329.828 220.324 330.023L219.68 331.371C219.875 331.645 220.207 331.859 220.676 332.016C220.207 332.406 219.875 332.836 219.68 333.305L220.324 334.301L219.68 336.879C219.953 337.621 220.168 338.5 220.324 339.516C220.051 339.555 219.836 339.77 219.68 340.16L221.32 340.805L220.969 339.164C221.672 339.086 222.434 338.871 223.254 338.52C223.059 339.379 222.961 340.355 222.961 341.449L223.957 342.094L224.602 341.449C224.68 340.668 224.895 339.906 225.246 339.164L224.25 339.516L224.895 338.168L223.957 338.52L223.605 338.168L224.25 337.875L223.605 336.586L222.961 337.523L222.316 336.234C223.137 336.312 223.898 336.527 224.602 336.879L226.242 339.516L227.531 340.16L228.469 337.23L228.82 334.301L227.824 330.023L228.82 328.441L229.816 330.375V329.086C230.051 329.125 230.266 329.34 230.461 329.73L229.816 332.016L230.461 331.664L231.457 330.668C231.105 329.848 230.773 328.871 230.461 327.738L231.105 328.734L232.746 326.449L234.68 324.516C234.406 324.008 233.977 323.676 233.391 323.52L234.68 321.879L235.031 321.234L234.387 319.594C234.387 319.281 234.602 319.066 235.031 318.949L234.68 315.668L235.031 314.73L234.68 312.094L235.324 311.156C235.246 310.414 234.934 309.965 234.387 309.809C234.426 309.066 234.641 308.305 235.031 307.523L234.68 305.59L235.031 304.945L234.387 303.305L235.324 304.301L235.031 301.664L235.324 300.668L235.031 297.738L234.035 295.16L235.324 296.156L235.676 294.516L234.035 293.871L233.391 294.809L233.039 293.871L232.102 293.168L229.465 293.871C229.152 293.52 228.723 293.285 228.176 293.168L227.824 294.164L224.895 292.875ZM254.25 294.164V293.52H253.957L254.25 294.164ZM258.527 294.164V293.52H258.176L258.527 294.164ZM232.102 293.52L232.746 295.16L231.105 294.516L232.102 293.52ZM262.395 293.871C262.512 294.301 262.746 294.613 263.098 294.809L262.395 293.871ZM264.68 294.516V293.871H264.387L264.68 294.516ZM207.961 294.164C208 294.75 208.215 295.297 208.605 295.805L207.961 294.164ZM226.887 293.871L227.531 295.453L226.242 295.805V295.16L226.887 293.871ZM255.539 294.809V294.164H255.246L255.539 294.809ZM263.742 294.809V294.164H263.391L263.742 294.809ZM221.672 294.164C221.906 294.203 222.121 294.418 222.316 294.809C222.043 294.77 221.828 294.555 221.672 294.164ZM229.816 294.164C230.051 294.203 230.266 294.418 230.461 294.809L229.816 294.164ZM266.027 295.16V294.516H265.676L266.027 295.16ZM209.25 294.809L208.254 296.801C208.84 296.332 209.172 295.668 209.25 294.809ZM220.676 294.516C220.91 294.555 221.125 294.77 221.32 295.16C221.086 295.121 220.871 294.906 220.676 294.516ZM224.895 294.516H225.539L225.246 295.16L224.895 294.516ZM260.461 294.809C260.539 295.121 260.754 295.336 261.105 295.453C261.066 295.18 260.852 294.965 260.461 294.809ZM264.68 294.809V295.453L265.324 295.16L264.68 294.809ZM255.891 295.805V295.16H255.539L255.891 295.805ZM260.109 295.805V295.16H259.816L260.109 295.805ZM263.098 295.805V295.16H262.746L263.098 295.805ZM266.32 296.156V295.453H266.027L266.32 296.156ZM220.969 295.453H221.672L221.32 296.156L220.969 295.453ZM228.176 295.453L229.172 295.805L229.816 295.453L228.469 297.094L228.176 295.453ZM261.105 296.449V295.805H260.812L261.105 296.449ZM265.324 296.449V295.805H265.031L265.324 296.449ZM223.254 295.805L224.602 296.156L223.254 296.449V295.805ZM227.18 295.805C227.453 295.844 227.668 296.059 227.824 296.449L227.18 295.805ZM231.457 295.805H232.102L231.75 296.449L231.457 295.805ZM260.109 296.801V296.156H259.816L260.109 296.801ZM226.242 296.156C226.477 296.156 226.691 296.371 226.887 296.801L226.242 296.156ZM262.395 297.094V296.449H262.102L262.395 297.094ZM261.457 297.445V296.801H261.105L261.457 297.445ZM208.605 297.094V297.738L209.25 297.445L208.605 297.094ZM223.254 296.801C223.527 296.84 223.762 297.055 223.957 297.445C223.684 297.406 223.449 297.191 223.254 296.801ZM227.531 296.801C227.766 296.84 227.98 297.055 228.176 297.445C227.902 297.406 227.688 297.191 227.531 296.801ZM230.754 296.801L232.395 297.094L231.105 297.445L230.754 296.801ZM256.242 297.738V297.094H255.891L256.242 297.738ZM260.461 297.738V297.094H260.109L260.461 297.738ZM263.098 297.738H263.742V297.094H263.391L263.098 297.738ZM264.035 297.094C264.113 297.328 264.328 297.543 264.68 297.738C264.641 297.465 264.426 297.25 264.035 297.094ZM262.746 298.09V297.445H262.395L262.746 298.09ZM266.32 297.445C266.398 297.719 266.613 297.934 266.965 298.09C266.926 297.816 266.711 297.602 266.32 297.445ZM224.602 297.445C224.836 297.484 225.051 297.699 225.246 298.09C224.973 298.051 224.758 297.836 224.602 297.445ZM257.531 298.441V297.738H257.18L257.531 298.441ZM261.105 297.738C261.184 297.973 261.398 298.207 261.75 298.441C261.711 298.129 261.496 297.895 261.105 297.738ZM207.961 298.09C208.039 298.363 208.254 298.578 208.605 298.734C208.527 298.539 208.312 298.324 207.961 298.09ZM209.25 298.734V298.09H208.957L209.25 298.734ZM223.605 297.738C223.84 297.777 224.055 298.012 224.25 298.441C224.016 298.402 223.801 298.168 223.605 297.738ZM227.824 297.738L228.469 299.379C228.078 298.949 227.863 298.402 227.824 297.738ZM231.105 297.738L232.395 298.441C231.965 298.363 231.535 298.129 231.105 297.738ZM222.609 298.09C222.883 298.129 223.098 298.344 223.254 298.734L222.609 298.09ZM262.395 298.441C262.473 298.715 262.707 298.93 263.098 299.086C263.02 298.773 262.785 298.559 262.395 298.441ZM225.539 299.086C225.305 299.047 225.09 298.832 224.895 298.441L225.539 299.086ZM228.82 298.441C229.094 298.441 229.309 298.656 229.465 299.086L228.82 298.441ZM233.039 298.441C233.312 298.441 233.547 298.656 233.742 299.086L233.039 298.441ZM257.824 299.379V298.734H257.531L257.824 299.379ZM261.457 298.734C261.535 298.969 261.75 299.184 262.102 299.379C262.062 299.105 261.848 298.891 261.457 298.734ZM208.957 299.086L208.254 300.375L209.895 300.668C209.777 300.121 209.465 299.594 208.957 299.086ZM262.746 299.379V300.023L263.391 299.73L262.746 299.379ZM229.172 299.379C229.523 299.848 229.738 300.395 229.816 301.02L229.172 299.379ZM231.457 299.73H233.039L231.75 301.371L231.457 299.73ZM222.961 300.668C222.688 300.668 222.473 300.453 222.316 300.023L222.961 300.668ZM231.105 300.668C230.871 300.668 230.656 300.453 230.461 300.023L231.105 300.668ZM259.172 301.02V300.375H258.82L259.172 301.02ZM263.391 301.02V300.375H263.098L263.391 301.02ZM262.395 301.371V300.668H262.102L262.395 301.371ZM208.254 302.016V301.371H207.961L208.254 302.016ZM258.527 302.309V301.664H258.176L258.527 302.309ZM265.324 301.664C265.402 301.938 265.637 302.152 266.027 302.309C265.949 302.035 265.715 301.82 265.324 301.664ZM265.031 302.66V302.016H264.68L265.031 302.66ZM264.035 302.953V302.309H263.742L264.035 302.953ZM222.961 302.309L223.957 304.301L222.961 304.945L221.965 303.305C222.434 303.188 222.766 302.855 222.961 302.309ZM225.891 302.309C226.125 302.348 226.34 302.562 226.535 302.953L225.891 302.309ZM262.395 302.66C262.512 302.855 262.746 303.07 263.098 303.305C263.02 303.031 262.785 302.816 262.395 302.66ZM208.957 303.656H209.602V302.953H209.25L208.957 303.656ZM264.68 302.953C264.758 303.266 264.973 303.5 265.324 303.656C265.285 303.344 265.07 303.109 264.68 302.953ZM208.605 303.949V303.305H208.254L208.605 303.949ZM260.109 303.949V303.305H259.816L260.109 303.949ZM230.109 303.305C230.383 303.344 230.598 303.559 230.754 303.949L230.109 303.305ZM266.32 304.301V303.656H266.027L266.32 304.301ZM220.969 303.656C221.242 303.656 221.477 303.871 221.672 304.301L220.969 303.656ZM260.812 303.949C260.852 304.223 261.066 304.438 261.457 304.594C261.379 304.32 261.164 304.105 260.812 303.949ZM265.031 303.949V304.594L265.676 304.301L265.031 303.949ZM208.957 304.945V304.301H208.605L208.957 304.945ZM227.531 303.949L229.172 304.301L227.824 304.594L227.531 303.949ZM259.816 304.301C259.895 304.496 260.109 304.711 260.461 304.945C260.422 304.633 260.207 304.418 259.816 304.301ZM262.395 305.238V304.594H262.102L262.395 305.238ZM221.32 304.594H221.965L221.672 305.238L221.32 304.594ZM225.539 304.594L226.887 305.59L225.539 307.875L224.895 305.59C225.246 305.434 225.461 305.102 225.539 304.594ZM232.746 304.594H233.391L233.039 305.238L232.746 304.594ZM261.457 305.59V304.945H261.105L261.457 305.59ZM265.676 305.59V304.945H265.324L265.676 305.59ZM208.605 305.238C208.684 305.551 208.898 305.785 209.25 305.941C209.211 305.629 208.996 305.395 208.605 305.238ZM231.75 304.945C232.023 304.984 232.238 305.199 232.395 305.59C232.16 305.551 231.945 305.336 231.75 304.945ZM260.461 305.941V305.238H260.109L260.461 305.941ZM225.246 306.586H225.891V305.941H225.539L225.246 306.586ZM228.82 305.59C229.094 305.629 229.309 305.844 229.465 306.234L228.82 305.59ZM261.75 306.586V305.941H261.457L261.75 306.586ZM208.957 306.234C208.996 306.508 209.211 306.723 209.602 306.879C209.523 306.605 209.309 306.391 208.957 306.234ZM220.324 306.234C220.363 306.82 220.578 307.367 220.969 307.875C220.93 307.289 220.715 306.742 220.324 306.234ZM223.605 305.941C223.84 305.941 224.055 306.156 224.25 306.586C224.016 306.547 223.801 306.332 223.605 305.941ZM267.609 306.586C267.375 306.547 267.16 306.332 266.965 305.941L267.609 306.586ZM207.961 306.586C208.039 306.859 208.254 307.074 208.605 307.23C208.566 306.918 208.352 306.703 207.961 306.586ZM265.676 306.879C265.754 307.152 265.969 307.367 266.32 307.523C266.281 307.25 266.066 307.035 265.676 306.879ZM209.602 307.875V307.23H209.25L209.602 307.875ZM208.254 307.523V308.168L208.957 307.875L208.254 307.523ZM222.961 307.23C223.195 307.27 223.41 307.484 223.605 307.875L222.961 307.23ZM262.746 308.168H263.391V307.523H263.098L262.746 308.168ZM262.395 308.52V307.875H262.102L262.395 308.52ZM220.969 308.168L220.031 309.164C220.5 308.969 220.812 308.637 220.969 308.168ZM208.957 309.164V308.52H208.605L208.957 309.164ZM223.254 308.168H223.957L223.605 308.871L223.254 308.168ZM227.531 308.168H228.176L227.824 308.871L227.531 308.168ZM263.098 308.52C263.137 308.793 263.352 309.008 263.742 309.164C263.664 308.891 263.449 308.676 263.098 308.52ZM266.32 308.871V309.516L266.965 309.164L266.32 308.871ZM261.457 309.809V309.164H261.105L261.457 309.809ZM220.031 309.516C220.383 310.141 220.812 310.57 221.32 310.805C221.086 310.258 220.656 309.828 220.031 309.516ZM263.742 310.16V309.516H263.391L263.742 310.16ZM266.027 310.805V310.16H265.676L266.027 310.805ZM207.961 310.453C208.039 310.766 208.254 311 208.605 311.156C208.527 310.922 208.312 310.688 207.961 310.453ZM264.68 311.801H265.324V311.156H265.031L264.68 311.801ZM265.676 311.156C265.871 311.586 266.203 312.016 266.672 312.445C266.555 311.977 266.223 311.547 265.676 311.156ZM208.254 311.449C208.332 311.723 208.566 311.938 208.957 312.094C208.879 311.898 208.645 311.684 208.254 311.449ZM263.391 312.445V311.801H263.098L263.391 312.445ZM225.246 311.801C225.48 311.84 225.695 312.055 225.891 312.445L225.246 311.801ZM265.031 312.094C265.109 312.367 265.324 312.582 265.676 312.738C265.598 312.543 265.383 312.328 265.031 312.094ZM208.254 313.09H208.957V312.445H208.605L208.254 313.09ZM224.25 312.094H224.895L224.602 312.738L224.25 312.094ZM264.387 313.09V312.445H264.035L264.387 313.09ZM225.539 312.738H226.242L225.891 313.441L225.539 312.738ZM233.742 312.738C233.977 312.777 234.191 313.012 234.387 313.441L233.742 312.738ZM208.605 314.086H209.25V313.441H208.957L208.605 314.086ZM264.387 313.441L263.391 314.379C263.859 314.184 264.191 313.871 264.387 313.441ZM207.961 313.734C208 314.32 208.215 314.867 208.605 315.375L207.961 313.734ZM226.887 313.441L226.242 315.375L225.891 313.734H226.887V313.441ZM229.816 313.734C230.051 313.773 230.266 313.988 230.461 314.379C230.188 314.34 229.973 314.125 229.816 313.734ZM220.676 314.086H221.32L220.969 314.73L220.676 314.086ZM232.746 314.73C232.473 314.691 232.258 314.477 232.102 314.086L232.746 314.73ZM265.031 315.023V314.379H264.68L265.031 315.023ZM226.887 314.379C227.121 314.418 227.336 314.633 227.531 315.023C227.258 314.984 227.043 314.77 226.887 314.379ZM264.68 315.375C264.289 315.805 264.074 316.352 264.035 317.016C264.465 316.547 264.68 316 264.68 315.375ZM208.254 315.668L207.961 317.309H208.957C208.918 316.762 208.684 316.215 208.254 315.668ZM227.824 316.02C227.59 315.98 227.375 315.766 227.18 315.375L227.824 316.02ZM226.242 315.668H226.887L226.535 316.371L226.242 315.668ZM262.746 316.02C262.824 316.254 263.039 316.469 263.391 316.664C263.352 316.391 263.137 316.176 262.746 316.02ZM265.031 316.371C265.109 316.645 265.324 316.859 265.676 317.016C265.637 316.703 265.422 316.488 265.031 316.371ZM223.957 317.016C223.684 316.977 223.449 316.762 223.254 316.371L223.957 317.016ZM226.535 316.664C226.809 316.703 227.023 316.918 227.18 317.309C226.945 317.27 226.73 317.055 226.535 316.664ZM221.32 317.016C221.594 317.055 221.809 317.27 221.965 317.66L221.32 317.016ZM265.324 317.309C265.402 317.621 265.637 317.836 266.027 317.953C265.949 317.68 265.715 317.465 265.324 317.309ZM208.605 317.66C208.684 317.934 208.898 318.148 209.25 318.305C209.211 318.031 208.996 317.816 208.605 317.66ZM224.25 317.953C224.016 317.953 223.801 317.738 223.605 317.309L224.25 317.953ZM264.387 317.66V318.305L265.031 317.953L264.387 317.66ZM207.961 317.953C208.039 318.578 208.254 319.125 208.605 319.594L207.961 317.953ZM266.027 318.949V318.305H265.676L266.027 318.949ZM209.25 319.301V318.656H208.957L209.25 319.301ZM224.895 318.305L225.891 320.59C225.461 319.965 225.129 319.203 224.895 318.305ZM265.031 319.301V318.656H264.68L265.031 319.301ZM265.676 319.301C265.754 319.496 265.969 319.711 266.32 319.945C266.281 319.633 266.066 319.418 265.676 319.301ZM208.254 319.945V320.59L208.957 320.238L208.254 319.945ZM208.605 320.941V321.586L209.25 321.234L208.605 320.941ZM225.539 320.941C225.812 320.941 226.047 321.156 226.242 321.586C225.969 321.547 225.734 321.332 225.539 320.941ZM209.25 322.523V321.879H208.957L209.25 322.523ZM227.531 322.23C227.258 322.191 227.043 321.977 226.887 321.586L227.531 322.23ZM221.672 321.879C222.414 322.152 223.059 322.582 223.605 323.168L221.672 321.879ZM235.031 322.875V322.23H234.68L235.031 322.875ZM208.605 323.52V322.875H208.254L208.605 323.52ZM208.254 323.871C208.332 324.145 208.566 324.359 208.957 324.516C208.879 324.203 208.645 323.988 208.254 323.871ZM231.457 323.52C231.691 323.559 231.906 323.773 232.102 324.164C231.828 324.125 231.613 323.91 231.457 323.52ZM229.172 324.809C228.898 324.77 228.664 324.555 228.469 324.164L229.172 324.809ZM226.887 325.16L227.531 327.094L226.242 327.445C226.633 326.742 226.848 325.98 226.887 325.16ZM229.465 325.805C229.23 325.766 229.016 325.551 228.82 325.16L229.465 325.805ZM209.25 326.449V325.805H208.957L209.25 326.449ZM223.957 325.453L224.25 326.449L223.605 325.805L223.957 325.453ZM207.961 327.445L208.605 327.738L208.957 327.094L208.254 326.801L207.961 327.445ZM233.391 327.445V326.801H233.039L233.391 327.445ZM233.391 328.441V327.738H233.039L233.391 328.441ZM208.254 328.09C208.332 328.363 208.566 328.578 208.957 328.734C208.879 328.461 208.645 328.246 208.254 328.09ZM221.965 328.734C221.73 328.695 221.516 328.48 221.32 328.09L221.965 328.734ZM234.68 329.086V328.441H234.387L234.68 329.086ZM220.969 329.086C220.734 329.047 220.52 328.832 220.324 328.441L220.969 329.086ZM208.605 329.086C208.684 329.359 208.898 329.574 209.25 329.73C209.211 329.418 208.996 329.203 208.605 329.086ZM231.457 329.086C231.496 329.359 231.711 329.574 232.102 329.73C232.023 329.496 231.809 329.281 231.457 329.086ZM232.746 329.73V329.086H232.395L232.746 329.73ZM207.961 330.023C208.156 331.391 208.586 332.699 209.25 333.949L208.605 331.02L209.25 330.023H207.961ZM224.895 330.375H226.535C226.105 330.648 225.676 331.078 225.246 331.664L224.895 330.375ZM234.387 331.371V330.668H234.035L234.387 331.371ZM229.172 331.664V331.02H228.82L229.172 331.664ZM234.387 332.309V331.664H234.035L234.387 332.309ZM229.465 332.66V332.016H229.172L229.465 332.66ZM226.535 332.016L228.176 337.23L226.887 337.523L226.535 336.234C226.77 336.156 226.984 335.941 227.18 335.59H226.242L226.887 335.238L226.535 332.016ZM231.457 332.309C231.457 332.777 231.672 333.227 232.102 333.656L232.746 332.309H231.457ZM230.109 332.66L229.172 336.586L231.105 333.949C230.949 333.52 230.617 333.09 230.109 332.66ZM220.324 332.66C220.598 332.699 220.812 332.914 220.969 333.305C220.734 333.266 220.52 333.051 220.324 332.66ZM224.602 332.66H225.246L224.895 333.305L224.602 332.66ZM232.746 333.656V332.953H232.395L232.746 333.656ZM207.961 333.656L208.254 337.23L209.25 335.238L207.961 333.656ZM223.957 333.656C224.582 333.93 225.109 334.359 225.539 334.945C224.875 334.75 224.348 334.32 223.957 333.656ZM233.039 334.594V333.949H232.746L233.039 334.594ZM231.105 334.301L230.754 335.59L231.457 335.941L231.105 334.301ZM232.102 334.945V334.301H231.75L232.102 334.945ZM225.891 334.301C226.125 334.34 226.34 334.555 226.535 334.945L225.891 334.301ZM232.746 335.59H233.391V334.945H233.039L232.746 335.59ZM231.75 335.238C231.828 335.473 232.043 335.707 232.395 335.941C232.355 335.629 232.141 335.395 231.75 335.238ZM233.039 336.586H233.742V335.941H233.391L233.039 336.586ZM231.105 336.234L229.172 337.23L229.816 337.523L230.754 336.879L231.457 337.23L232.746 336.234H231.105ZM227.18 336.586V337.23H227.531V336.586H227.18ZM220.324 336.586C220.598 336.625 220.812 336.84 220.969 337.23C220.734 337.191 220.52 336.977 220.324 336.586ZM233.742 337.523V336.879H233.391L233.742 337.523ZM228.469 338.52H229.172L228.82 337.875L228.469 338.52ZM234.035 338.52V337.875H233.742L234.035 338.52ZM207.961 338.168C208.078 338.793 208.41 339.34 208.957 339.809C208.762 339.223 208.43 338.676 207.961 338.168ZM231.75 338.168L230.754 339.164C231.223 338.969 231.555 338.637 231.75 338.168ZM232.746 338.168V338.871L233.391 338.52L232.746 338.168ZM230.109 339.516V338.871H229.816L230.109 339.516ZM228.82 339.164C228.898 339.75 229.113 340.297 229.465 340.805C229.426 340.18 229.211 339.633 228.82 339.164ZM231.105 339.516C231.105 340.062 231.32 340.609 231.75 341.156L231.105 339.516ZM222.316 340.453V339.809H221.965L222.316 340.453ZM225.891 339.809C225.969 340.121 226.184 340.336 226.535 340.453C226.457 340.258 226.242 340.043 225.891 339.809ZM230.461 340.453V339.809H230.109L230.461 340.453ZM224.895 340.16C225.285 340.98 225.5 341.957 225.539 343.09C224.953 343.402 224.426 343.832 223.957 344.379L222.961 343.734L221.32 345.023L220.969 343.441C221.359 342.738 221.594 341.977 221.672 341.156L220.969 342.094L219.68 340.453L220.031 342.094L219.68 342.445L220.031 344.379C220.148 345.199 220.461 345.746 220.969 346.02L221.965 349.301H220.969V349.594L220.676 349.301C221.066 350.043 221.613 350.805 222.316 351.586C221.926 352.289 221.379 352.934 220.676 353.52L220.324 352.23H220.969L221.32 351.586L220.969 350.59C220.305 350.941 219.875 351.488 219.68 352.23L220.324 357.738L220.031 358.441L219.035 361.371C219.582 361.684 220.012 362.211 220.324 362.953L219.387 362.016L220.031 365.238L219.387 364.301L219.035 367.875C219.348 368.07 219.562 368.402 219.68 368.871L219.035 369.809H219.68V369.516L222.961 369.809L225.246 367.23C225.871 366.918 226.516 366.488 227.18 365.941L228.82 366.586L225.891 367.523L224.25 369.809L227.531 370.16L228.469 369.516L230.461 369.164C231.125 369.203 231.77 369.418 232.395 369.809L234.387 370.16L233.039 369.809L234.035 369.516C234.465 368.969 234.68 368.305 234.68 367.523L234.035 368.871L232.395 367.875L233.742 367.23L235.324 365.941C235.754 365.902 236.086 365.668 236.32 365.238L235.324 364.301L235.676 363.305L234.68 361.371L235.031 363.305L234.387 362.953L233.039 360.668L230.754 361.02L231.457 360.668L232.395 359.379C232.785 358.793 233 358.246 233.039 357.738L230.109 353.52H231.457C231.066 353.754 230.832 354.086 230.754 354.516L232.395 355.16L233.039 353.168L234.387 354.809C234.27 354.34 234.055 353.793 233.742 353.168C233.391 352.387 232.844 351.957 232.102 351.879L229.816 349.301L228.469 350.59L229.816 355.453L228.176 355.805L228.469 354.809L228.176 354.516L227.824 352.875L225.891 352.23L226.242 354.164C226.359 354.867 226.672 355.414 227.18 355.805L227.531 357.738L225.246 355.16C224.855 353.949 223.977 353.07 222.609 352.523C223.547 352.406 224.309 351.977 224.895 351.234C225.051 350.062 225.383 348.871 225.891 347.66C225.852 348.246 225.637 348.891 225.246 349.594L225.539 349.945L226.535 349.594L225.891 350.238L225.539 350.941L225.891 351.879L228.176 350.941L229.465 348.656L230.461 349.594L232.102 350.238L231.75 347.953C231.125 347.562 230.578 347.035 230.109 346.371L231.457 347.309L231.105 346.02L230.461 344.73L228.469 347.309L229.816 344.379C229.387 343.91 228.938 343.598 228.469 343.441C228.273 342.426 227.961 341.43 227.531 340.453C226.906 340.883 226.359 341.43 225.891 342.094C225.773 341.391 225.441 340.746 224.895 340.16ZM228.176 340.16L228.469 341.156L228.82 340.453L228.176 340.16ZM221.965 340.805C222.043 341.078 222.258 341.293 222.609 341.449C222.531 341.254 222.316 341.039 221.965 340.805ZM207.961 341.156C208.039 342.289 208.371 343.363 208.957 344.379C208.801 343.246 208.469 342.172 207.961 341.156ZM229.816 341.801V341.156H229.465L229.816 341.801ZM233.391 341.156L234.035 342.738L234.387 341.156H233.391ZM231.457 341.449C231.535 342.035 231.848 342.582 232.395 343.09C232.238 342.504 231.926 341.957 231.457 341.449ZM223.957 343.09V342.445H223.605L223.957 343.09ZM222.961 343.441V342.738H222.609L222.961 343.441ZM234.387 342.738C234.152 342.855 233.938 343.09 233.742 343.441C234.016 343.363 234.23 343.129 234.387 342.738ZM221.965 343.734V343.09H221.672L221.965 343.734ZM233.391 343.09C233.156 343.168 232.941 343.383 232.746 343.734C233.02 343.656 233.234 343.441 233.391 343.09ZM232.395 344.086V343.441H232.102L232.395 344.086ZM231.457 344.379V343.734H231.105L231.457 344.379ZM233.039 344.086C233.117 344.359 233.352 344.574 233.742 344.73C233.664 344.418 233.43 344.203 233.039 344.086ZM227.531 344.086C227.336 344.398 227.004 344.613 226.535 344.73L227.531 344.086ZM232.746 345.023V344.379H232.395L232.746 345.023ZM222.316 344.379C222.551 344.418 222.766 344.633 222.961 345.023C222.688 344.984 222.473 344.77 222.316 344.379ZM223.605 345.023L223.957 349.301C223.879 349.965 223.547 350.512 222.961 350.941C222.961 350.277 223.176 349.73 223.605 349.301L221.965 346.02C222.629 345.941 223.176 345.609 223.605 345.023ZM231.75 345.375C231.828 345.883 231.945 346.215 232.102 346.371L233.039 345.375L232.102 345.668L231.75 345.375ZM219.68 346.371V345.668H219.387L219.68 346.371ZM226.535 346.02C226.301 345.98 226.086 345.766 225.891 345.375L226.535 346.02ZM233.742 346.02C233.273 346.449 233.039 347.094 233.039 347.953C233.391 347.445 233.625 346.801 233.742 346.02ZM208.254 346.664C208.332 347.602 208.566 348.48 208.957 349.301C208.879 348.363 208.645 347.484 208.254 346.664ZM219.387 346.664C219.426 346.938 219.641 347.152 220.031 347.309C219.992 347.035 219.777 346.82 219.387 346.664ZM229.172 346.664C229.406 346.703 229.621 346.918 229.816 347.309C229.543 347.27 229.328 347.055 229.172 346.664ZM234.387 347.66V347.016H234.035L234.387 347.66ZM220.969 347.953V347.309H220.676L220.969 347.953ZM220.031 348.305V347.66H219.68L220.031 348.305ZM226.535 347.309C226.809 348.051 227.023 348.93 227.18 349.945C226.906 349.242 226.691 348.363 226.535 347.309ZM229.172 347.66L230.109 347.953L228.469 348.305L229.172 347.66ZM233.039 348.305C233.156 348.539 233.391 348.754 233.742 348.949C233.664 348.676 233.43 348.461 233.039 348.305ZM219.68 348.656C219.719 348.93 219.934 349.145 220.324 349.301C220.285 348.988 220.07 348.773 219.68 348.656ZM233.742 350.238L234.387 351.879C234.348 351.293 234.133 350.746 233.742 350.238ZM208.254 350.59L208.957 353.168C208.84 352.27 208.605 351.41 208.254 350.59ZM227.824 351.586L227.18 352.523L228.469 352.23C228.43 351.996 228.215 351.781 227.824 351.586ZM230.109 352.23C229.875 352.191 229.66 351.977 229.465 351.586L230.109 352.23ZM230.461 351.586L231.105 352.875L229.816 353.168L230.461 351.586ZM224.895 352.523C225.09 352.992 225.422 353.441 225.891 353.871C225.734 353.402 225.402 352.953 224.895 352.523ZM223.605 353.168L223.957 356.449C224.465 356.762 224.895 357.191 225.246 357.738C224.582 357.973 224.035 358.422 223.605 359.086C222.824 359.438 222.062 359.652 221.32 359.73L220.969 358.09L222.961 358.734L222.609 357.094L220.676 357.738C221.379 356.957 222.023 355.98 222.609 354.809C222.766 354.262 223.098 353.715 223.605 353.168ZM219.68 354.516V353.871H219.387L219.68 354.516ZM234.387 355.805V355.16H234.035L234.387 355.805ZM233.039 355.453V356.156L233.742 355.805L233.039 355.453ZM229.465 355.805C229.738 355.844 229.953 356.059 230.109 356.449C229.875 356.41 229.66 356.195 229.465 355.805ZM228.469 356.156C228.859 356.586 229.094 357.113 229.172 357.738L228.469 356.156ZM233.391 356.449V357.094L234.035 356.801L233.391 356.449ZM230.754 356.449C231.027 356.488 231.262 356.703 231.457 357.094C231.184 357.055 230.949 356.84 230.754 356.449ZM230.461 357.445C230.188 357.406 229.973 357.191 229.816 356.801L230.461 357.445ZM219.68 358.734V358.09H219.387L219.68 358.734ZM225.891 357.738C226.125 357.777 226.34 358.012 226.535 358.441L225.891 357.738ZM235.324 358.734V358.09H235.031L235.324 358.734ZM240.891 358.09L240.246 359.379L241.535 359.086L240.891 358.09ZM255.246 358.09C255.363 358.832 255.695 359.262 256.242 359.379L255.246 358.09ZM221.965 359.086V358.441H221.672L221.965 359.086ZM245.461 359.086V358.441H245.109L245.461 359.086ZM249.035 358.441C249.113 358.715 249.328 358.93 249.68 359.086C249.641 358.773 249.426 358.559 249.035 358.441ZM236.32 359.379V358.734H236.027L236.32 359.379ZM244.172 358.734V359.379L244.816 359.086L244.172 358.734ZM248.039 358.734L248.742 360.023C249.367 359.984 250.012 359.77 250.676 359.379L248.039 358.734ZM251.32 358.734C250.969 359.398 250.422 359.945 249.68 360.375L250.324 361.371C249.738 361.449 249.094 361.664 248.391 362.016L248.039 359.73L247.102 362.016L248.742 363.305L248.391 362.309L249.035 362.66L248.742 364.594L248.039 366.234L247.746 368.52C248.215 369.105 248.859 369.75 249.68 370.453L248.742 367.523L250.031 366.879C250.617 367.621 250.949 368.598 251.027 369.809L253.312 370.453L253.605 369.809C253.254 368.793 252.609 367.816 251.672 366.879C251.086 366.332 250.637 365.688 250.324 364.945L251.027 366.586C251.105 365.453 251.535 364.359 252.316 363.305C253.137 362.836 253.684 362.191 253.957 361.371C253.488 360.238 252.609 359.359 251.32 358.734ZM226.242 358.734C226.867 359.359 227.18 360.121 227.18 361.02L227.824 362.953L226.242 363.305L226.887 361.664L226.535 361.02C225.48 361.098 224.836 361.742 224.602 362.953C224.875 361.391 225.422 359.984 226.242 358.734ZM235.031 359.086C235.07 359.359 235.285 359.574 235.676 359.73C235.637 359.418 235.422 359.203 235.031 359.086ZM238.254 359.086L236.965 360.023L237.316 360.375L238.254 360.023C238.723 359.828 239.172 359.516 239.602 359.086L238.605 359.379L238.254 359.086ZM242.18 359.086C242.258 359.359 242.473 359.574 242.824 359.73C242.785 359.496 242.57 359.281 242.18 359.086ZM243.176 359.086V359.73L243.82 359.379L243.176 359.086ZM246.75 359.73V359.086H246.457L246.75 359.73ZM254.25 359.086C254.328 359.359 254.543 359.574 254.895 359.73C254.855 359.418 254.641 359.203 254.25 359.086ZM258.527 359.086C258.605 359.281 258.82 359.496 259.172 359.73C259.094 359.418 258.879 359.203 258.527 359.086ZM241.242 359.379L240.246 360.375C240.832 360.258 241.164 359.926 241.242 359.379ZM245.812 360.023V359.379H245.461L245.812 360.023ZM257.531 359.379C257.609 359.613 257.824 359.828 258.176 360.023C258.137 359.75 257.922 359.535 257.531 359.379ZM236.672 360.375V359.73H236.32L236.672 360.375ZM243.82 359.73L242.531 360.668C243.117 360.59 243.547 360.277 243.82 359.73ZM244.816 360.375V359.73H244.465L244.816 360.375ZM235.676 360.668V360.023H235.324L235.676 360.668ZM239.25 360.023L236.965 362.309C236.887 362.895 236.672 363.559 236.32 364.301C237.219 364.379 238.098 364.594 238.957 364.945L239.602 366.234L238.254 366.586L237.961 366.234L238.605 369.164L240.539 368.52L241.535 366.586L240.246 366.879L241.242 365.238L243.527 364.594L244.816 365.941L246.105 364.594C245.715 363.695 245.168 362.934 244.465 362.309C244.895 362.23 245.227 362.016 245.461 361.664L243.82 362.016L244.816 363.656L243.176 363.949C242.59 363.754 242.043 363.422 241.535 362.953C240.988 363.227 240.559 363.559 240.246 363.949C239.113 363.637 238.352 362.992 237.961 362.016L240.246 362.66C240.051 361.762 239.719 360.883 239.25 360.023ZM254.602 360.023C254.641 360.336 254.855 360.551 255.246 360.668C255.207 360.395 254.992 360.18 254.602 360.023ZM241.887 360.375C241.418 360.531 240.969 360.863 240.539 361.371C241.008 361.215 241.457 360.883 241.887 360.375ZM245.461 361.02H246.105V360.375H245.812L245.461 361.02ZM254.25 361.02V360.375H253.957L254.25 361.02ZM261.105 360.375C261.184 360.648 261.398 360.863 261.75 361.02L262.102 360.668L261.105 360.375ZM236.965 361.371V360.668H236.672L236.965 361.371ZM244.465 360.668C244.543 360.902 244.758 361.137 245.109 361.371C245.07 361.059 244.855 360.824 244.465 360.668ZM260.461 361.371V360.668H260.109L260.461 361.371ZM230.461 361.371C230.188 361.332 229.973 361.098 229.816 360.668L230.461 361.371ZM236.027 361.664V361.02H235.676L236.027 361.664ZM242.531 361.664H243.176V361.02H242.824L242.531 361.664ZM254.895 361.02C254.973 361.293 255.188 361.508 255.539 361.664C255.5 361.391 255.285 361.176 254.895 361.02ZM259.172 361.02V361.664L259.816 361.371L259.172 361.02ZM245.812 361.371C245.852 361.645 246.066 361.859 246.457 362.016C246.379 361.703 246.164 361.488 245.812 361.371ZM261.105 362.016L261.75 362.953V361.664L261.457 361.371L261.105 362.016ZM251.32 361.371C251.594 361.41 251.809 361.625 251.965 362.016C251.73 361.977 251.516 361.762 251.32 361.371ZM256.242 361.664L255.246 362.66C255.715 362.504 256.047 362.172 256.242 361.664ZM260.109 362.309H260.812V361.664H260.461L260.109 362.309ZM230.109 361.664L232.746 362.309C232.082 362.738 231.32 363.07 230.461 363.305L230.109 361.664ZM242.824 362.66H243.527V362.016H243.176L242.824 362.66ZM250.324 361.664L250.676 364.301L249.387 362.309L250.324 361.664ZM259.816 362.66V362.016H259.465L259.816 362.66ZM241.887 362.309C241.965 362.543 242.18 362.758 242.531 362.953C242.492 362.68 242.277 362.465 241.887 362.309ZM257.531 362.309C256.828 362.582 256.164 363.031 255.539 363.656L257.531 363.305L255.891 366.234L257.824 365.59L258.527 364.594L257.531 362.309ZM261.105 363.305V362.66H260.812L261.105 363.305ZM247.746 363.656V362.953H247.395L247.746 363.656ZM221.965 362.953C222.238 362.992 222.453 363.227 222.609 363.656C222.375 363.617 222.16 363.383 221.965 362.953ZM253.312 363.949H253.957V363.305H253.605L253.312 363.949ZM254.25 363.305C254.523 364.086 254.953 364.73 255.539 365.238C255.344 364.496 254.914 363.852 254.25 363.305ZM220.031 363.305C220.266 363.344 220.48 363.559 220.676 363.949C220.402 363.91 220.188 363.695 220.031 363.305ZM224.895 363.949C224.66 363.91 224.445 363.695 224.25 363.305L224.895 363.949ZM252.609 363.656L251.672 364.594L253.312 365.238L252.609 363.656ZM260.812 363.656C260.93 364.203 261.242 364.73 261.75 365.238C261.633 364.691 261.32 364.164 260.812 363.656ZM227.18 364.301C226.945 364.262 226.73 364.047 226.535 363.656L227.18 364.301ZM258.82 363.949C258.898 364.223 259.113 364.438 259.465 364.594C259.387 364.398 259.172 364.184 258.82 363.949ZM226.242 364.594C225.969 364.555 225.734 364.34 225.539 363.949L226.242 364.594ZM247.102 364.945V364.301H246.75L247.102 364.945ZM254.25 364.945V364.301H253.957L254.25 364.945ZM221.32 364.301C221.672 364.613 221.887 365.043 221.965 365.59L221.32 364.301ZM260.109 364.594C260.188 364.867 260.422 365.082 260.812 365.238C260.734 365.043 260.5 364.828 260.109 364.594ZM259.172 364.945C259.211 365.219 259.426 365.434 259.816 365.59C259.738 365.355 259.523 365.141 259.172 364.945ZM243.176 365.941V365.238H242.824L243.176 365.941ZM258.527 365.941V365.238H258.176L258.527 365.941ZM248.391 365.238H249.035L248.742 365.941L248.391 365.238ZM253.605 366.234V365.59H253.312L253.605 366.234ZM261.105 365.59C261.184 365.824 261.398 366.039 261.75 366.234C261.711 365.961 261.496 365.746 261.105 365.59ZM236.965 365.941L236.027 367.523L236.965 367.23L237.316 367.875H236.965L236.32 369.516L237.961 370.16L238.254 369.516L236.965 365.941ZM244.465 366.586V365.941H244.172L244.465 366.586ZM252.609 366.586V365.941H252.316L252.609 366.586ZM259.816 366.586V365.941H259.465L259.816 366.586ZM242.824 366.234C242.941 366.469 243.176 366.684 243.527 366.879C243.449 366.605 243.215 366.391 242.824 366.234ZM254.25 366.234L253.312 366.879L254.25 368.168C254.641 368.988 255.188 369.75 255.891 370.453L255.539 368.168C255.305 367.543 254.875 366.898 254.25 366.234ZM258.82 366.879V366.234H258.527L258.82 366.879ZM229.172 366.234H229.816L229.465 366.879L229.172 366.234ZM241.887 366.586C241.965 366.781 242.18 366.996 242.531 367.23L242.824 366.879L241.887 366.586ZM245.109 366.586C245.188 366.859 245.422 367.074 245.812 367.23C245.734 366.918 245.5 366.703 245.109 366.586ZM257.824 367.23V366.586H257.531L257.824 367.23ZM260.461 367.23H261.105V366.586H260.812L260.461 367.23ZM220.031 366.586H220.676L220.324 367.23L220.031 366.586ZM244.172 366.879C244.211 367.152 244.426 367.367 244.816 367.523C244.777 367.25 244.562 367.035 244.172 366.879ZM259.465 367.523H260.109V366.879H259.816L259.465 367.523ZM222.316 366.879L222.961 368.52L221.672 368.871L222.316 366.879ZM243.176 367.23V367.875L243.82 367.523L243.176 367.23ZM259.172 367.875V367.23H258.82L259.172 367.875ZM245.461 367.523C245.539 367.836 245.754 368.051 246.105 368.168C246.066 367.895 245.852 367.68 245.461 367.523ZM249.387 368.168H250.031V367.523H249.68L249.387 368.168ZM256.887 367.523C256.926 367.836 257.141 368.051 257.531 368.168C257.453 367.973 257.238 367.758 256.887 367.523ZM257.531 367.523C257.609 367.758 257.824 367.973 258.176 368.168C258.137 367.895 257.922 367.68 257.531 367.523ZM260.812 367.523C260.852 367.836 261.066 368.051 261.457 368.168C261.379 367.895 261.164 367.68 260.812 367.523ZM227.531 367.523C228.195 367.797 228.742 368.246 229.172 368.871C228.547 368.637 228 368.188 227.531 367.523ZM244.465 367.875V368.52L245.109 368.168L244.465 367.875ZM226.535 367.875C226.809 367.914 227.023 368.129 227.18 368.52C226.945 368.48 226.73 368.266 226.535 367.875ZM235.324 368.168C235.402 368.48 235.637 368.715 236.027 368.871C235.949 368.559 235.715 368.324 235.324 368.168ZM243.527 368.168C243.605 368.402 243.82 368.637 244.172 368.871C244.094 368.559 243.879 368.324 243.527 368.168ZM250.676 368.168L249.68 368.52L250.031 370.16C250.422 369.613 250.637 368.949 250.676 368.168ZM258.82 368.168C258.898 368.48 259.113 368.715 259.465 368.871C259.426 368.559 259.211 368.324 258.82 368.168ZM241.535 368.52L240.539 369.516L241.535 369.164L241.887 369.809L242.18 368.52H241.535ZM245.461 368.52C244.797 368.949 244.367 369.594 244.172 370.453L245.109 369.516L247.395 368.52H245.461ZM254.25 369.164V368.52H253.957L254.25 369.164ZM257.824 368.52C257.941 368.754 258.176 368.969 258.527 369.164C258.449 368.891 258.215 368.676 257.824 368.52ZM261.105 368.52C261.184 368.793 261.398 369.008 261.75 369.164C261.672 368.969 261.457 368.754 261.105 368.52ZM220.324 368.52C220.598 368.559 220.812 368.773 220.969 369.164C220.734 369.125 220.52 368.91 220.324 368.52ZM255.891 368.871C255.969 369.145 256.184 369.359 256.535 369.516C256.496 369.203 256.281 368.988 255.891 368.871ZM256.887 368.871C257.043 369.301 257.355 369.73 257.824 370.16C257.668 369.691 257.355 369.262 256.887 368.871ZM260.109 368.871L260.812 370.453C260.734 369.867 260.5 369.34 260.109 368.871ZM236.027 369.809V369.164H235.676L236.027 369.809ZM239.602 369.164C239.68 369.398 239.895 369.613 240.246 369.809C240.207 369.535 239.992 369.32 239.602 369.164ZM235.031 370.16V369.516H234.68L235.031 370.16ZM238.605 369.516C238.684 369.789 238.898 370.004 239.25 370.16C239.211 369.848 238.996 369.633 238.605 369.516ZM242.824 369.516V370.16H243.176V369.516H242.824ZM246.457 369.516C246.223 369.594 246.008 369.809 245.812 370.16C246.086 370.082 246.301 369.867 246.457 369.516ZM254.602 370.16V369.516H254.25L254.602 370.16ZM245.461 370.453V369.809H245.109L245.461 370.453ZM256.242 369.809C256.281 370.121 256.496 370.336 256.887 370.453C256.809 370.258 256.594 370.043 256.242 369.809ZM251.672 370.805V370.16H251.32L251.672 370.805ZM259.465 370.16V370.805L260.109 370.453L259.465 370.16ZM273 274.77C274.289 275.043 275.383 275.512 276.281 276.176C275.031 276.02 273.938 275.551 273 274.77ZM292.629 275.238C293.059 275.551 293.371 276.02 293.566 276.645L292.629 275.238ZM263.273 276.176H264.211L263.742 277.113L263.273 276.176ZM266.965 277.113C266.613 277.074 266.301 276.762 266.027 276.176L266.965 277.113ZM264.68 278.988C264.289 278.949 263.977 278.637 263.742 278.051L264.68 278.988ZM273.938 278.051C274.328 278.09 274.641 278.402 274.875 278.988L273.938 278.051ZM275.344 280.395C274.992 280.316 274.68 280.004 274.406 279.457L275.344 280.395ZM289.816 280.863C290.246 281.137 290.559 281.605 290.754 282.27L289.816 280.863ZM273.469 281.332C273.898 281.605 274.211 282.055 274.406 282.68L273.469 281.332ZM282.375 281.332H283.312L282.844 282.27L282.375 281.332ZM287.004 281.801C287.395 281.84 287.707 282.133 287.941 282.68C287.59 282.641 287.277 282.348 287.004 281.801ZM269.309 284.555C268.957 284.516 268.645 284.203 268.371 283.617L269.309 284.555ZM299.602 285.961C299.25 285.922 298.938 285.609 298.664 285.023L299.602 285.961ZM299.133 286.43C300.109 287.445 300.891 288.695 301.477 290.18L303.352 300.902C302.375 301.762 301.125 302.23 299.602 302.309C298.938 301.41 298.469 300.316 298.195 299.027L297.727 294.809L298.195 291.117L297.258 290.18C297.648 288.969 298.273 287.719 299.133 286.43ZM267.902 286.898L268.84 288.305C268.41 288.031 268.098 287.562 267.902 286.898ZM283.312 286.898L289.816 287.836C292.082 288.109 293.332 289.516 293.566 292.055C293.098 292.328 292.785 292.797 292.629 293.461L293.566 296.684L293.098 302.309C293.215 303.91 293.684 305.453 294.504 306.938C293.879 307.055 293.41 307.367 293.098 307.875L294.035 320.004L293.566 321.41C293.762 323.441 294.23 325.453 294.973 327.445L293.566 332.602L294.504 338.168L294.035 341.918L294.973 345.199L294.504 348.949L294.973 349.828L295.441 358.734C295.52 360.062 295.969 361.449 296.789 362.895C296.125 363.168 295.363 363.637 294.504 364.301C293.215 364.652 292.121 365.277 291.223 366.176L290.754 364.77C290.09 365.16 289.465 365.785 288.879 366.645L285.598 364.77L279.562 365.238C278.625 363.793 278 362.094 277.688 360.141L274.875 358.734L276.75 358.266V359.203L277.688 354.984V354.047H277.219L278.156 353.109L277.688 349.828H277.219L277.688 348.48L277.219 342.387L277.688 341.449L277.219 339.105V338.168H276.75L277.219 336.82L276.281 332.602C276.438 332.055 276.75 331.586 277.219 331.195L275.812 325.629L277.219 324.691L275.812 321.41L276.75 320.004L276.281 319.066L276.75 318.598L275.812 305.531L276.281 304.184C276.008 302.699 275.539 301.137 274.875 299.496L276.281 298.559L275.344 291.586C275.539 290.297 276.008 289.047 276.75 287.836C278.781 287.758 280.969 287.445 283.312 286.898ZM263.742 287.836L264.211 289.711H263.273C263.508 289.242 263.664 288.617 263.742 287.836ZM266.965 287.836C267.395 288.422 268.02 289.047 268.84 289.711C268.098 289.477 267.473 288.852 266.965 287.836ZM263.742 295.277L265.09 299.027L264.211 300.434L264.68 305.062L264.211 308.344L264.68 309.281L265.09 314.438L264.68 317.191L265.09 318.129V319.535L265.559 324.223L265.09 328.852C265.246 329.906 265.559 331 266.027 332.133C265.715 332.25 265.402 332.562 265.09 333.07L266.027 338.637L265.09 341.449L266.496 342.387L265.559 343.793L266.496 346.605L265.559 350.766L267.434 353.578L266.027 353.109L266.965 357.797L266.496 361.488L267.434 362.895L266.027 365.707L266.965 370.863L266.496 376.43L266.965 381.527L266.496 380.648L263.742 329.789L264.211 322.816L263.742 295.277ZM265.559 299.027C265.949 299.066 266.262 299.379 266.496 299.965C266.145 299.926 265.832 299.613 265.559 299.027ZM267.434 299.496C268.41 299.809 269.191 300.434 269.777 301.371L267.434 299.496ZM267.434 303.246L269.309 304.652C268.449 304.379 267.824 303.91 267.434 303.246ZM267.434 315.844C267.082 315.766 266.77 315.453 266.496 314.906L267.434 315.844ZM299.602 316.254C300.031 316.566 300.344 317.035 300.539 317.66L299.602 316.254ZM294.973 319.066L295.91 321.41C295.402 320.707 295.09 319.926 294.973 319.066ZM294.504 328.383C294.855 328.461 295.168 328.773 295.441 329.32L294.504 328.383ZM268.371 329.32C268.762 329.398 269.074 329.711 269.309 330.258C268.957 330.219 268.645 329.906 268.371 329.32ZM273.469 332.133L275.344 335.414C274.406 334.633 273.781 333.539 273.469 332.133ZM269.309 333.539H270.246L269.777 334.477L269.309 333.539ZM271.652 340.043C272.004 340.121 272.316 340.434 272.59 340.98C272.238 340.941 271.926 340.629 271.652 340.043ZM275.344 341.918H276.281L275.812 342.855L275.344 341.918ZM272.59 342.855L273.938 343.324L273 343.793L272.59 342.855ZM296.32 348.012C296.828 348.285 297.141 348.734 297.258 349.359C296.828 349.086 296.516 348.637 296.32 348.012ZM300.07 350.297C300.422 350.375 300.734 350.688 301.008 351.234C300.656 351.195 300.344 350.883 300.07 350.297ZM275.812 352.172C275.695 352.602 275.383 352.914 274.875 353.109L275.812 352.172ZM283.781 354.984C283.82 355.648 284.113 356.273 284.66 356.859C284.66 356.195 284.367 355.57 283.781 354.984ZM295.91 354.984H296.789L296.32 355.922L295.91 354.984ZM295.91 356.391C296.262 356.43 296.555 356.742 296.789 357.328L295.91 356.391ZM295.91 360.551C296.262 360.629 296.555 360.941 296.789 361.488L295.91 360.551ZM273.938 366.176C274.328 366.215 274.641 366.527 274.875 367.113C274.523 367.074 274.211 366.762 273.938 366.176ZM302.414 366.176L304.289 368.051C303.508 367.816 302.883 367.191 302.414 366.176ZM282.375 367.582C281.984 367.543 281.672 367.23 281.438 366.645L282.375 367.582ZM305.695 368.051L307.102 368.52L306.164 368.988L305.695 368.051ZM310.793 369.457H311.73L311.262 370.395L310.793 369.457ZM308.039 371.273L308.918 372.68C308.488 372.406 308.195 371.938 308.039 371.273ZM290.754 373.148L289.816 375.023C289.934 374.359 290.246 373.734 290.754 373.148ZM284.66 374.555L283.312 375.023L283.781 373.617L284.66 374.555ZM273.469 374.555L274.875 375.961C274.289 375.688 273.82 375.219 273.469 374.555ZM293.098 375.023L292.629 376.898L293.098 377.836L291.691 376.43L293.098 375.023ZM287.473 375.492C287.355 375.844 287.043 376.156 286.535 376.43L287.473 375.492ZM292.629 378.305C292.98 378.344 293.293 378.656 293.566 379.242C293.176 379.164 292.863 378.852 292.629 378.305ZM292.629 381.059C292.277 381.02 291.965 380.727 291.691 380.18L292.629 381.059ZM305.695 383.871C305.305 383.832 304.992 383.52 304.758 382.934L305.695 383.871ZM338.684 291.469L340.793 291.879L341.613 291.469L342.434 291.879V291.469L347.473 291.879L352.512 291.469C353.41 292.211 354.113 293.051 354.621 293.988L354.211 299.027L354.621 301.137L354.211 301.957V302.836L354.621 307.875L354.211 312.035L355.031 316.254L354.621 317.953L355.031 318.773V319.594C355.344 319.906 355.344 320.199 355.031 320.473L355.91 327.621L355.5 328.852L356.73 341.039L356.32 341.859L356.73 344.379L356.32 346.488L357.141 347.777L358.84 359.965L358.43 360.785L360.539 378.012L360.07 378.832L360.949 381.762L360.539 382.992L361.359 392.25L354.621 393.539L353.801 393.07H352.98L350.461 393.539L349.582 393.07L341.203 393.949L339.094 393.539L338.684 394.359L337.805 393.949C336.867 394.145 335.754 394.281 334.465 394.359L333.234 393.539L330.246 395.18H325.617V395.648L320.578 395.18L318.938 391.43L310.148 335.59L309.68 303.656L310.559 293.988C311.73 293.324 312.98 292.914 314.309 292.758L323.977 291.879L325.207 292.289C326.184 292.094 327.316 291.957 328.605 291.879H338.684V291.469ZM312.668 305.355V308.285H313.488V307.875L316.008 308.285C315.617 306.684 314.504 305.707 312.668 305.355ZM335.754 318.773L329.426 320.473L323.977 323.812L321.457 328.031L319.348 334.301L318.938 338.93L319.348 340.629L319.758 346.488L321.867 352.816L324.797 357.445L329.836 361.605C331.594 362.27 333.566 362.836 335.754 363.305L341.203 362.895C343.156 362.348 345.246 361.508 347.473 360.375C349.23 359.516 350.637 358.109 351.691 356.156C352.629 354.516 353.332 352.699 353.801 350.707L354.621 347.777L354.211 346.488L352.102 347.367C350.891 348.578 350.051 350.258 349.582 352.406C348.605 354.242 347.219 355.922 345.422 357.445L340.324 359.086L336.164 358.676L334.875 359.086L329.426 355.746L326.086 350.707L323.977 343.969C325.852 343.344 327.805 342.934 329.836 342.738L350.871 340.629C352.355 340.59 353.742 340.023 355.031 338.93L353.801 332.66L351.281 328.031C350.227 326.352 348.957 324.672 347.473 322.992C345.871 321.898 344.055 320.922 342.023 320.062L335.754 318.773ZM333.645 322.113L336.984 322.582L337.805 322.113H339.094L343.312 323.812L346.242 326.742L347.941 330.141L349.172 335.18C348.469 336.156 347.492 336.996 346.242 337.699L329.016 339.75C327.297 339.75 325.48 339.477 323.566 338.93L323.977 334.301L325.207 329.672L326.906 326.332C327.688 325.512 328.664 324.809 329.836 324.223L333.645 322.113ZM313.898 322.992V325.512C314.172 325.395 314.465 325.102 314.777 324.633L313.898 322.992ZM354.621 330.961V330.141H354.211L354.621 330.961ZM355.91 337.699V336.82H355.5L355.91 337.699ZM353.801 342.27V341.449H353.391L353.801 342.27ZM318.059 363.715V362.895H317.648L318.059 363.715ZM332.766 388.5V387.621H332.355L332.766 388.5ZM365.93 285.902L374.953 286.254C375.578 286.488 376.125 286.918 376.594 287.543L377.531 286.547L378.527 286.254V286.898L381.105 286.547L382.102 286.898L384.68 286.547C385.734 286.664 386.809 286.996 387.902 287.543C388.645 287.23 389.504 287.016 390.48 286.898L392.414 287.543L394.699 287.191L404.719 288.188L405.363 287.836L411.164 288.48C411.906 288.324 412.766 288.227 413.742 288.188C413.82 288.383 414.035 288.598 414.387 288.832L414.738 288.48L416.672 288.188L416.027 288.832L416.32 289.477C416.242 290.297 415.93 291.156 415.383 292.055L416.027 290.766C415.52 291.156 415.09 291.684 414.738 292.348L415.383 293.344L416.965 292.055L419.25 293.344L419.895 292.992C419.973 293.773 420.188 294.535 420.539 295.277L422.473 294.633L422.121 295.277L422.766 295.57L425.402 297.504L427.629 301.078L429.562 303.363L428.625 305.941C429.016 306.801 429.23 307.758 429.27 308.812L429.562 309.457L430.559 308.812L429.914 309.809L429.27 311.742L430.207 312.387C430.09 313.285 429.66 314.047 428.918 314.672C429.66 315.219 430.09 315.961 430.207 316.898L429.562 317.543L430.559 318.539L429.914 319.477L430.559 319.828L428.918 321.762L429.27 324.34L428.625 325.277L428.918 326.918L428.273 325.98L427.336 327.914H427.98V327.562L426.984 330.492C426.359 331 425.832 331.645 425.402 332.426C424.621 333.129 423.859 333.988 423.117 335.004C423.391 335.746 423.82 336.391 424.406 336.938L426.984 338.871L427.629 341.449L426.984 340.805L427.98 342.738L428.273 345.023L428.918 346.957L428.273 346.312L428.918 348.539L427.98 349.184C428.137 350.199 428.449 351.293 428.918 352.465L429.27 354.691L428.273 353.754L427.629 355.336L429.27 355.043L428.918 355.336L427.98 357.27L428.273 358.266L427.629 362.426L427.98 365.004L427.629 366.645L428.625 366.996L427.629 367.641C427.551 367.875 427.336 368.09 426.984 368.285L427.98 369.574L427.336 373.09L427.98 375.668L426.34 378.246C426.262 378.91 425.949 379.359 425.402 379.594C425.324 379.32 425.09 379.105 424.699 378.949L424.055 379.887H424.699V379.594C425.207 380.18 425.656 380.609 426.047 380.883L429.914 381.176L433.137 380.883L434.074 381.176L433.137 382.113L359.133 381.469C359.25 380.805 359.582 380.277 360.129 379.887L363.352 380.238C364.328 379.887 365.402 379.672 366.574 379.594L368.156 379.887L368.801 379.594H369.445L370.441 380.238L373.02 379.594L374.66 380.238L375.305 379.887L374.953 378.246L375.598 377.953L374.953 377.309L373.371 376.664C373.137 376.742 372.922 376.957 372.727 377.309L371.438 379.242L371.086 378.246L371.438 377.953C371.984 377.25 372.727 376.703 373.664 376.312L373.02 375.375L373.664 375.023L374.66 376.02L374.953 374.086L373.664 374.73L374.66 372.797L373.02 372.445C373.293 371.664 373.625 371.02 374.016 370.512C373.938 369.652 373.723 368.793 373.371 367.934L374.309 368.578L374.953 363.422L373.664 363.07C374.133 362.641 374.465 362.113 374.66 361.488C374.074 360.746 373.312 360.199 372.375 359.848L370.441 358.559V359.555H370.793L370.441 359.848C370.051 359.379 369.836 358.852 369.797 358.266L369.152 355.336L370.793 355.043L369.445 352.465C369.992 352.309 370.324 351.977 370.441 351.469L368.801 350.824L368.156 352.465L367.219 348.539L368.156 349.828L369.797 349.535L370.148 349.828L369.152 348.539C369.855 348.383 370.5 348.07 371.086 347.602C370.578 347.094 370.266 346.664 370.148 346.312L371.438 345.961C371.281 345.414 370.949 345.102 370.441 345.023L372.375 344.379L372.727 346.957C372.609 347.738 372.277 348.48 371.73 349.184C372.473 349.809 373.332 350.355 374.309 350.824C373.566 350.746 372.824 350.531 372.082 350.18L371.438 350.824L372.375 352.758L371.438 352.465L372.727 353.402L374.016 351.762L374.953 350.18C374.562 349.711 374.035 349.281 373.371 348.891L374.309 348.246L374.953 347.602L374.016 346.957L374.309 345.316L373.664 344.672L370.793 343.383L371.086 341.156L372.727 340.512C372.805 339.887 373.02 339.555 373.371 339.516C373.918 338.852 374.23 338.09 374.309 337.23L375.598 334.652L375.949 333.715L374.016 332.426L374.66 329.496L375.305 327.914L374.66 327.562C374.113 327.172 373.469 326.957 372.727 326.918L373.371 325.629L373.02 324.984L374.016 326.273L375.598 327.562C375.91 327.289 376.125 326.859 376.242 326.273C375.617 325.57 374.875 325.023 374.016 324.633L375.949 323.988C375.637 323.48 375.207 323.168 374.66 323.051L375.598 321.41L374.66 319.477L375.949 320.473L376.242 318.539C375.891 318.617 375.578 318.832 375.305 319.184L376.594 318.539L377.238 317.895L376.594 317.543L375.598 316.898L376.594 315.316L378.176 314.027C377.668 313.754 377.238 313.324 376.887 312.738C376.34 313.285 375.91 313.93 375.598 314.672L374.309 315.961L374.66 314.32L374.309 314.027L374.66 312.035L373.664 310.746C373.312 311.215 373.098 311.762 373.02 312.387L372.082 313.676L372.727 312.738L372.375 312.035L373.02 309.457L371.73 309.809L372.082 309.457L372.727 308.52L372.082 306.586L373.664 307.523L373.371 309.809C373.41 310.004 373.625 310.219 374.016 310.453L373.664 308.812L374.016 309.457L374.309 306.586L374.953 304.945L374.309 304.652L374.016 303.656L373.02 304.301L374.309 303.363L374.016 301.43C374.602 301.625 375.246 301.938 375.949 302.367L377.531 299.789C377.609 299.555 377.824 299.34 378.176 299.145L377.883 297.855L376.242 298.148L374.309 299.789L374.66 297.211L375.598 298.148L377.238 296.566C377.824 295.863 378.352 295.004 378.82 293.988C378.469 293.363 378.254 292.719 378.176 292.055C378.098 291.586 377.883 291.254 377.531 291.059C377.102 291.332 376.887 291.762 376.887 292.348C375.91 291.684 374.836 291.254 373.664 291.059C372.961 290.629 372.102 290.199 371.086 289.77L371.438 291.41C370.969 291.02 370.422 290.805 369.797 290.766C369.602 290.375 369.27 290.16 368.801 290.121L368.508 289.477L367.219 289.77L368.156 290.121L367.512 290.414C366.77 290.688 366.125 291.234 365.578 292.055L364.934 294.926L365.285 295.922L364.641 301.723L364.934 304.301L364.289 304.945C364.328 306.078 364.543 307.27 364.934 308.52C364.582 309.574 364.367 310.746 364.289 312.035C364.367 312.504 364.582 312.953 364.934 313.383L363.645 314.32L364.289 316.898L363.645 319.184V319.828H363.996L364.289 320.766L365.578 320.121L364.641 321.117L363.996 323.051C364.348 323.637 364.875 323.949 365.578 323.988C365.617 323.363 365.734 323.051 365.93 323.051C366.398 323.441 366.926 323.656 367.512 323.695L367.863 322.055L369.445 323.695L370.441 326.625C369.816 326 369.387 325.238 369.152 324.34L368.156 323.344L368.508 324.984C368.273 324.906 368.059 324.691 367.863 324.34L366.867 325.277C366.789 324.926 366.574 324.613 366.223 324.34L367.512 326.918C366.926 327.074 366.496 327.504 366.223 328.207L367.863 327.562L366.574 329.203L366.867 331.137C366.789 331.371 366.574 331.586 366.223 331.781L366.574 332.719C367.043 332.055 367.57 331.625 368.156 331.43L370.793 330.141C370.637 330.805 370.305 331.352 369.797 331.781L369.445 333.715L367.863 333.07L367.512 334.008C366.887 334.047 366.242 334.262 365.578 334.652L367.863 335.648C367.199 336.195 366.77 336.84 366.574 337.582L365.578 338.52L366.867 340.16L369.445 341.156L367.512 341.801L369.152 343.09C368.957 343.754 368.41 344.184 367.512 344.379L366.223 345.668L367.512 346.312C367.043 346.977 366.613 347.836 366.223 348.891C366.34 349.555 366.672 350.082 367.219 350.473L366.223 351.469L367.512 353.402L369.152 354.047L367.863 355.688L368.508 357.27C368.039 357.816 367.492 358.148 366.867 358.266L366.574 360.199L365.578 358.91L364.641 359.555L364.289 362.777L362.707 361.488H363.996L364.289 361.137C364.055 360.16 363.625 359.203 363 358.266L361.125 357.621V359.555L360.773 360.199L361.418 361.488L361.125 361.781L360.773 364.359L361.125 365.355L360.773 365.707L360.129 367.641C360.363 367.68 360.578 367.895 360.773 368.285C360.734 368.871 360.52 369.516 360.129 370.219L360.773 370.863L360.129 374.086L360.48 375.023L360.129 375.668L359.484 376.02V374.086L364.641 289.477C364.836 288.305 365.266 287.113 365.93 285.902ZM365.93 287.543V286.898H365.578L365.93 287.543ZM368.508 287.191C368.586 287.426 368.801 287.641 369.152 287.836C369.113 287.562 368.898 287.348 368.508 287.191ZM373.02 287.836V287.191H372.727L373.02 287.836ZM379.465 287.191C379.543 287.465 379.758 287.68 380.109 287.836C380.07 287.562 379.855 287.348 379.465 287.191ZM381.75 287.543C381.789 287.816 382.004 288.031 382.395 288.188C382.316 287.953 382.102 287.738 381.75 287.543ZM366.574 287.836L365.285 289.77C365.363 290.199 365.578 290.531 365.93 290.766L367.512 288.832L366.574 287.836ZM383.391 288.48V287.836H383.039L383.391 288.48ZM371.438 289.125V288.48H371.086L371.438 289.125ZM382.102 288.48C382.141 288.754 382.355 288.969 382.746 289.125C382.668 288.852 382.453 288.637 382.102 288.48ZM401.789 288.48L400.793 290.414C401.457 289.945 401.789 289.301 401.789 288.48ZM417.316 288.188C418.41 288.305 419.484 288.832 420.539 289.77L420.832 288.48C421.652 288.676 422.414 289.105 423.117 289.77L421.184 289.477V291.059C420.559 290.707 420.012 290.18 419.543 289.477L418.254 290.414L416.672 290.766C417.062 290.062 417.277 289.203 417.316 288.188ZM380.754 288.832C380.129 289.535 379.387 290.277 378.527 291.059L379.465 293.637L379.816 292.055L380.461 290.766C380.656 291.391 381.086 291.82 381.75 292.055C381.75 290.922 381.418 289.848 380.754 288.832ZM396.633 288.832L395.988 290.414L397.277 290.121L396.633 288.832ZM399.504 288.832C399.738 289.301 400.07 289.73 400.5 290.121C400.539 289.848 400.754 289.633 401.145 289.477L399.504 288.832ZM403.723 288.832L403.078 289.77L404.074 291.41L405.012 290.414L403.723 288.832ZM405.363 289.477V288.832H405.012L405.363 289.477ZM407.941 288.832V289.477H408.234V288.832H407.941ZM412.453 289.477V288.832H412.102L412.453 289.477ZM415.031 288.832L414.738 290.766L415.676 290.121L415.031 288.832ZM394.699 289.125L394.992 289.77V289.125H394.699ZM424.406 288.832C424.875 289.418 425.207 290.16 425.402 291.059L425.051 290.414L423.762 290.766L424.406 288.832ZM426.34 288.832C427.16 289.184 427.805 289.711 428.273 290.414L426.34 288.832ZM428.918 288.832C429.191 288.871 429.406 289.086 429.562 289.477C429.328 289.438 429.113 289.223 428.918 288.832ZM385.324 290.121H385.969V289.477H385.617L385.324 290.121ZM388.84 290.121V289.477H388.547L388.84 290.121ZM393.059 289.477C392.863 289.555 392.648 289.77 392.414 290.121C392.766 290.121 392.98 289.906 393.059 289.477ZM406.945 289.477L407.59 290.414C407.512 289.984 407.297 289.672 406.945 289.477ZM408.586 289.477L407.941 290.414C408.254 290.219 408.469 289.906 408.586 289.477ZM410.168 289.477C410.207 289.906 410.422 290.336 410.812 290.766L410.168 289.477ZM430.852 289.125L431.848 290.121L430.559 290.766L431.203 289.77L430.852 289.125ZM411.457 290.414L412.746 290.121L412.102 289.77L411.457 290.414ZM433.781 289.477C434.016 289.516 434.23 289.73 434.426 290.121L433.781 289.477ZM395.344 290.766V290.121H394.992L395.344 290.766ZM398.859 290.121C398.938 290.395 399.152 290.609 399.504 290.766C399.465 290.453 399.25 290.238 398.859 290.121ZM402.082 290.121C402.16 290.395 402.375 290.609 402.727 290.766C402.688 290.531 402.473 290.316 402.082 290.121ZM406.652 290.766V290.121H406.301L406.652 290.766ZM413.391 290.121C413.43 290.668 413.664 291.195 414.094 291.703C414.016 291.195 413.781 290.668 413.391 290.121ZM409.23 290.414L409.875 291.41C409.797 290.98 409.582 290.648 409.23 290.414ZM385.617 290.766C385.695 290.961 385.91 291.176 386.262 291.41C386.223 291.098 386.008 290.883 385.617 290.766ZM389.836 290.766C389.914 290.961 390.129 291.176 390.48 291.41C390.441 291.098 390.227 290.883 389.836 290.766ZM400.148 290.766C400.266 291.234 400.48 291.664 400.793 292.055C400.754 291.547 400.539 291.117 400.148 290.766ZM401.145 290.766C401.223 290.961 401.438 291.176 401.789 291.41C401.75 291.137 401.535 290.922 401.145 290.766ZM408.234 290.766C408.469 291.195 408.898 291.625 409.523 292.055C409.328 291.547 408.898 291.117 408.234 290.766ZM412.453 290.766C412.531 291.039 412.746 291.254 413.098 291.41C413.059 291.098 412.844 290.883 412.453 290.766ZM388.195 291.059C388.469 291.645 388.898 292.074 389.484 292.348C389.211 291.801 388.781 291.371 388.195 291.059ZM402.434 291.059L403.078 292.699L404.074 291.41L402.434 291.059ZM390.48 292.055L391.125 291.703L390.773 291.41L390.48 292.055ZM404.719 292.055H405.363L405.012 291.41L404.719 292.055ZM379.816 292.699H380.461V292.055H380.109L379.816 292.699ZM384.68 292.699V292.055H384.328L384.68 292.699ZM395.988 292.699V292.055H395.637L395.988 292.699ZM400.148 292.699V292.055H399.855L400.148 292.699ZM419.25 291.703C419.484 291.742 419.699 291.957 419.895 292.348C419.621 292.309 419.406 292.094 419.25 291.703ZM410.168 292.992V292.348H409.875L410.168 292.992ZM414.387 292.992V292.348H414.094L414.387 292.992ZM402.082 293.344V292.699H401.789L402.082 293.344ZM416.027 293.344L416.672 293.988L416.965 292.699H416.32L416.027 293.344ZM381.105 292.992V293.637H381.457V292.992H381.105ZM372.727 293.344L373.664 294.633L372.375 295.277L373.02 293.988L372.727 293.344ZM378.527 294.633C378.605 294.828 378.82 295.043 379.172 295.277C379.133 295.004 378.918 294.789 378.527 294.633ZM374.016 294.633L374.66 295.922C374.387 295.609 374.172 295.18 374.016 294.633ZM372.375 296.215C372.805 296.84 373.137 297.602 373.371 298.5H372.082L372.727 296.859L372.375 296.215ZM378.527 297.504V298.148L379.172 297.855L378.527 297.504ZM370.793 297.504C371.027 297.543 371.242 297.758 371.438 298.148L370.793 297.504ZM424.406 299.145H425.051V298.5H424.699L424.406 299.145ZM377.883 299.789L376.887 302.367L377.883 303.363L378.82 300.785L377.883 299.789ZM367.512 299.789C368.254 300.219 368.801 300.863 369.152 301.723L367.512 299.789ZM371.438 299.789C372.062 300.141 372.492 300.57 372.727 301.078C372.18 300.883 371.75 300.453 371.438 299.789ZM375.598 299.789H376.242L375.949 300.434L375.598 299.789ZM365.578 300.434L366.223 302.074L365.285 302.367L365.578 300.434ZM378.82 302.367V301.723H378.527L378.82 302.367ZM371.086 301.723C371.633 301.957 372.062 302.387 372.375 303.012C371.906 302.738 371.477 302.309 371.086 301.723ZM428.273 303.012V302.367H427.98L428.273 303.012ZM374.953 302.719C374.992 302.992 375.207 303.207 375.598 303.363C375.559 303.051 375.344 302.836 374.953 302.719ZM375.949 303.363L374.953 304.008L375.598 306.234L374.66 307.23L375.598 307.523L376.242 310.102L377.531 310.746L377.883 308.812C378.273 308.812 378.488 308.598 378.527 308.168L377.883 307.875L376.594 308.52L376.242 307.23C376.516 307.27 376.73 307.484 376.887 307.875C377.434 307.289 377.766 306.527 377.883 305.59C377.414 304.809 376.77 304.066 375.949 303.363ZM367.219 303.363C367.492 303.637 367.707 304.066 367.863 304.652L367.219 303.363ZM370.441 303.363L371.438 303.656L370.441 304.008V303.363ZM428.273 304.301V303.656H427.98L428.273 304.301ZM366.867 305.59L367.512 306.879C367.238 306.605 367.023 306.176 366.867 305.59ZM365.285 307.23L366.574 308.168L365.93 309.809L365.285 307.23ZM404.074 309.457L403.078 312.035L403.43 313.676L403.078 314.32L402.434 314.965L403.078 316.605V317.25L402.727 319.828C403.117 320.219 403.352 320.746 403.43 321.41L403.078 324.34L405.363 324.984C405.91 324.398 406.34 323.754 406.652 323.051C406.809 322.387 407.121 321.742 407.59 321.117L407.941 319.477L406.652 316.898L407.297 314.672L406.008 314.965L406.301 314.32C406.73 314.164 407.062 313.852 407.297 313.383L406.652 312.738H407.59L407.297 311.742C407.102 311.117 406.77 310.785 406.301 310.746L404.074 309.457ZM379.816 310.453V309.809H379.465L379.816 310.453ZM375.598 310.102L374.953 311.391L376.242 310.746C376.164 310.551 375.949 310.336 375.598 310.102ZM377.883 310.746L376.594 311.742L377.883 312.738L378.527 312.035L377.883 310.746ZM365.285 310.746L365.93 312.035C365.5 311.762 365.285 311.332 365.285 310.746ZM367.219 310.746C367.492 310.98 367.707 311.312 367.863 311.742L367.219 310.746ZM375.949 311.391L376.242 312.035V311.391H375.949ZM404.719 312.035C404.445 312.035 404.23 311.82 404.074 311.391L404.719 312.035ZM367.219 312.387L367.512 314.32L366.867 313.031L367.219 312.387ZM371.438 312.387C371.359 312.855 371.145 313.285 370.793 313.676L371.438 312.387ZM402.434 313.383V312.738H402.082L402.434 313.383ZM367.219 314.672L367.863 315.961C367.59 315.648 367.375 315.219 367.219 314.672ZM369.445 314.672L370.793 315.316C370.285 315.277 369.836 315.062 369.445 314.672ZM408.234 315.609V314.965H407.941L408.234 315.609ZM377.531 315.316L376.887 316.254L377.883 316.898L378.176 315.609L377.531 315.316ZM407.941 315.961C407.98 316.234 408.195 316.449 408.586 316.605C408.508 316.371 408.293 316.156 407.941 315.961ZM373.664 316.898L374.953 316.605L372.727 318.539L373.02 316.254L373.664 316.898ZM376.242 316.605C376.32 316.801 376.535 317.016 376.887 317.25C376.848 316.938 376.633 316.723 376.242 316.605ZM402.434 317.25V316.605H402.082L402.434 317.25ZM408.234 317.25V317.895L408.879 317.543L408.234 317.25ZM364.934 317.25L365.578 318.832C365.188 318.363 364.973 317.836 364.934 317.25ZM402.434 317.543V318.188L403.078 317.895L402.434 317.543ZM429.27 318.188V317.543H428.918L429.27 318.188ZM371.086 317.543C371.359 317.855 371.574 318.285 371.73 318.832L370.793 319.184L371.438 318.188L371.086 317.543ZM402.434 320.473V319.828H402.082L402.434 320.473ZM429.27 319.828C429.348 320.023 429.562 320.238 429.914 320.473C429.836 320.199 429.621 319.984 429.27 319.828ZM401.438 320.766V320.121H401.145L401.438 320.766ZM367.863 320.121C367.785 320.512 367.57 320.844 367.219 321.117L367.863 320.121ZM369.152 320.121L369.797 321.762C369.367 321.332 369.152 320.785 369.152 320.121ZM372.082 320.121H372.727L372.375 320.766L372.082 320.121ZM363.352 321.117V321.762L363.996 321.41L363.352 321.117ZM375.598 322.055H376.242V321.41H375.949L375.598 322.055ZM377.238 322.055V321.41H376.887L377.238 322.055ZM402.727 321.41L402.434 322.406H403.078L402.727 321.41ZM402.082 323.051V322.406H401.789L402.082 323.051ZM407.941 323.051V322.406H407.59L407.941 323.051ZM427.98 322.699C428.02 323.012 428.234 323.227 428.625 323.344C428.547 323.07 428.332 322.855 427.98 322.699ZM363 324.633H363.645L363.352 323.988L363 324.633ZM365.285 324.633L363.645 326.918L364.934 326.273L364.641 327.27C365.148 326.762 365.676 326.43 366.223 326.273C366.105 325.688 365.793 325.141 365.285 324.633ZM376.887 325.277V324.633H376.594L376.887 325.277ZM376.594 325.629C376.633 325.902 376.848 326.117 377.238 326.273C377.199 326 376.984 325.785 376.594 325.629ZM403.43 325.629C403.508 325.863 403.723 326.078 404.074 326.273C403.996 326 403.781 325.785 403.43 325.629ZM363 326.918C363.078 327.191 363.293 327.406 363.645 327.562C363.566 327.367 363.352 327.152 363 326.918ZM363 328.852L363.645 329.203V328.207H363.352L363 328.852ZM364.289 328.207L364.934 329.203C364.855 328.773 364.641 328.441 364.289 328.207ZM369.797 327.914C370.031 327.953 370.246 328.168 370.441 328.559L369.797 327.914ZM375.305 328.852L375.949 329.203V328.207H375.598L375.305 328.852ZM376.887 329.203V328.559H376.594L376.887 329.203ZM370.793 328.559C371.613 329.105 372.473 329.418 373.371 329.496L371.438 330.141L370.793 328.559ZM367.219 328.852L368.508 329.848C368.547 329.574 368.762 329.359 369.152 329.203C368.84 329.555 368.41 329.984 367.863 330.492L367.219 328.852ZM363 329.496L363.352 330.492L363.645 329.496H363ZM364.641 329.848C364.68 330.121 364.895 330.336 365.285 330.492C365.207 330.258 364.992 330.043 364.641 329.848ZM374.66 330.492C375.051 330.961 375.578 331.273 376.242 331.43L374.66 330.492ZM363.352 331.781V331.137H363L363.352 331.781ZM364.289 331.137V331.781L364.934 331.43L364.289 331.137ZM365.285 331.781C365.363 332.289 365.578 332.816 365.93 333.363C365.93 332.816 365.715 332.289 365.285 331.781ZM372.082 331.43C372.863 332.055 373.605 332.816 374.309 333.715C373.723 333.715 373.195 333.93 372.727 334.359L373.02 335.297L374.309 335.004C373.918 335.746 373.703 336.605 373.664 337.582L371.438 339.223L371.73 338.227L371.438 337.582L370.793 337.23L369.797 336.586C369.25 336.977 368.605 337.191 367.863 337.23L369.797 334.652C370.656 335.316 371.633 335.863 372.727 336.293L371.438 334.652L372.375 335.648L372.727 335.004C372.688 333.91 372.473 332.719 372.082 331.43ZM423.117 331.781C423.195 331.977 423.41 332.191 423.762 332.426C423.723 332.113 423.508 331.898 423.117 331.781ZM367.863 332.074L367.512 333.07L368.156 332.719V332.074H367.863ZM371.086 332.074L371.73 334.008C371.34 333.461 371.125 332.816 371.086 332.074ZM364.934 333.363V332.719H364.641L364.934 333.363ZM363.645 333.363V334.008L364.289 333.715L363.645 333.363ZM362.707 333.715C362.785 334.145 363 334.457 363.352 334.652L362.707 333.715ZM422.473 333.715C422.551 333.91 422.766 334.125 423.117 334.359C423.078 334.047 422.863 333.832 422.473 333.715ZM364.641 334.359L364.289 335.941L365.578 335.648C365.5 335.18 365.188 334.75 364.641 334.359ZM362.355 335.941V336.586L363 336.293L362.355 335.941ZM365.285 335.941L365.578 336.586V335.941H365.285ZM369.445 335.941V336.586H369.797V335.941H369.445ZM364.289 337.23L364.934 337.582L364.641 336.586L364.289 337.23ZM422.473 336.586C422.551 336.898 422.766 337.113 423.117 337.23C423.039 337.035 422.824 336.82 422.473 336.586ZM365.578 336.938V337.582L366.223 337.23L365.578 336.938ZM372.727 336.938V337.582H373.02V336.938H372.727ZM363.645 337.23C363.723 337.543 363.938 337.758 364.289 337.875C364.211 337.68 363.996 337.465 363.645 337.23ZM367.219 337.582L368.156 339.223L366.867 339.516L367.512 338.227L367.219 337.582ZM425.402 338.52V337.875H425.051L425.402 338.52ZM374.953 338.52L375.305 339.516L375.598 338.52H374.953ZM365.285 338.871L364.641 339.867C364.992 340.57 365.305 341.43 365.578 342.445C365.852 342.875 366.281 343.305 366.867 343.734C366.945 343.461 367.16 343.246 367.512 343.09L367.219 342.445C367.18 341.859 366.965 341.43 366.574 341.156L365.285 338.871ZM376.594 339.516V338.871H376.242L376.594 339.516ZM426.34 338.871C426.379 339.34 426.594 339.77 426.984 340.16L426.34 338.871ZM374.309 339.516C373.723 340.57 373.293 341.645 373.02 342.738C373.723 341.801 374.152 340.727 374.309 339.516ZM376.887 340.512V339.867H376.594L376.887 340.512ZM362.707 340.805L363.352 341.801C363.273 341.371 363.059 341.039 362.707 340.805ZM364.641 341.156C364.016 341.586 363.586 342.113 363.352 342.738L365.578 342.445L364.641 341.156ZM376.594 341.156C376.672 341.352 376.887 341.566 377.238 341.801C377.199 341.488 376.984 341.273 376.594 341.156ZM403.43 341.156L401.438 345.316C402.219 345.785 402.766 346.43 403.078 347.25L401.789 346.605L401.145 348.246L402.434 347.895V348.539L401.789 349.535C401.633 350.395 401.418 351.137 401.145 351.762L401.438 352.465L402.727 352.113L401.438 354.691L401.145 357.914C400.949 358.812 400.617 359.672 400.148 360.492L401.145 360.199L400.793 362.777L401.438 363.715L401.145 364.711L399.855 366.352L401.438 366.996C401.125 367.855 400.695 368.715 400.148 369.574C400.812 370.121 401.457 370.551 402.082 370.863L400.793 371.508L400.5 370.863C400.422 372.152 400.207 373.539 399.855 375.023C399.934 375.609 400.246 375.941 400.793 376.02C400.363 376.527 400.051 377.055 399.855 377.602L398.215 380.531L400.148 379.594L399.504 380.531L400.5 380.883C401.398 380.648 402.141 380.219 402.727 379.594C403 380.062 403.332 380.375 403.723 380.531C404.895 380.18 406.086 379.652 407.297 378.949C406.32 378.363 405.676 377.484 405.363 376.312L404.367 373.09H405.012L405.363 369.574L405.012 367.289L405.656 367.934L406.008 367.289L405.363 366.645L405.012 363.07L405.656 362.426L406.945 359.555L405.012 359.848C405.598 359.418 405.93 358.891 406.008 358.266L405.012 356.332L406.301 356.977L405.656 354.047L406.008 352.465L404.719 350.473L405.656 349.535L404.719 347.602L406.008 348.246L406.652 347.25L405.012 345.023L406.301 345.668C406.145 344.535 405.832 343.559 405.363 342.738L403.43 341.156ZM374.953 341.449V342.094L375.598 341.801L374.953 341.449ZM371.086 343.09H371.73V342.445H371.438L371.086 343.09ZM375.598 343.09V342.445H375.305L375.598 343.09ZM401.145 343.383V342.738H400.793L401.145 343.383ZM427.629 343.383V342.738H427.336L427.629 343.383ZM428.625 342.445C428.859 342.484 429.074 342.699 429.27 343.09L428.625 342.445ZM362.355 343.734V343.09H362.062L362.355 343.734ZM364.934 343.09C365.09 343.637 365.422 344.164 365.93 344.672C365.734 344.086 365.402 343.559 364.934 343.09ZM373.02 343.09C373.605 343.637 374.25 343.949 374.953 344.027L373.02 343.09ZM377.531 343.734V343.09H377.238L377.531 343.734ZM367.219 343.734V344.379L367.863 344.027L367.219 343.734ZM372.082 344.379L371.73 345.316C371.965 345.238 372.18 345.023 372.375 344.672L372.082 344.379ZM374.66 344.672C374.699 344.945 374.914 345.16 375.305 345.316C375.266 345.043 375.051 344.828 374.66 344.672ZM362.707 345.023L363.352 345.961C363.273 345.531 363.059 345.219 362.707 345.023ZM368.156 344.672C368.43 344.711 368.645 344.926 368.801 345.316C368.566 345.277 368.352 345.062 368.156 344.672ZM427.629 346.312V345.668H427.336L427.629 346.312ZM362.355 346.605V345.961H362.062L362.355 346.605ZM365.578 346.957V346.312H365.285L365.578 346.957ZM364.289 346.605V347.25L364.934 346.957L364.289 346.605ZM371.086 346.605C371.164 346.879 371.379 347.094 371.73 347.25C371.691 346.977 371.477 346.762 371.086 346.605ZM363.645 348.246V347.602H363.352L363.645 348.246ZM427.629 347.602C427.707 347.875 427.922 348.09 428.273 348.246C428.195 348.012 427.98 347.797 427.629 347.602ZM364.641 347.895L364.934 348.891V347.895H364.641ZM362.062 348.891V348.246H361.77L362.062 348.891ZM374.66 348.891C374.816 349.359 375.129 349.789 375.598 350.18C375.48 349.711 375.168 349.281 374.66 348.891ZM370.793 349.535L371.73 350.18C371.574 349.867 371.262 349.652 370.793 349.535ZM401.145 350.473V349.828H400.793L401.145 350.473ZM427.629 350.473V349.828H427.336L427.629 350.473ZM362.062 350.18V350.824L362.707 350.473L362.062 350.18ZM364.641 351.469V350.824H364.289L364.641 351.469ZM365.285 350.824C365.402 351.254 365.715 351.469 366.223 351.469L365.285 350.824ZM375.949 352.113V351.469H375.598L375.949 352.113ZM362.707 352.113C362.238 352.621 361.926 353.266 361.77 354.047C362.512 354.008 363.254 353.793 363.996 353.402C363.723 352.973 363.293 352.543 362.707 352.113ZM365.578 352.113C365.812 352.777 366.242 353.324 366.867 353.754L365.578 352.113ZM406.945 353.109V352.465H406.652L406.945 353.109ZM364.641 352.758L363.996 354.047L365.285 353.754L364.641 352.758ZM400.793 353.402V352.758H400.5L400.793 353.402ZM367.219 353.754L367.512 354.398V353.754H367.219ZM362.355 354.047L362.062 355.043H362.707L362.355 354.047ZM427.629 354.691V354.047H427.336L427.629 354.691ZM366.223 354.398V355.043L366.867 354.691L366.223 354.398ZM371.438 354.691L372.082 357.914L371.086 358.559L374.016 360.199L374.309 358.266C373.645 358.148 373 357.816 372.375 357.27L373.371 357.914L373.664 356.625C373.703 356.938 373.918 357.152 374.309 357.27L371.438 354.691ZM374.309 354.691L374.66 355.336V354.691H374.309ZM361.418 355.043C361.457 355.316 361.672 355.531 362.062 355.688C361.984 355.453 361.77 355.238 361.418 355.043ZM365.285 355.043C365.324 355.316 365.539 355.531 365.93 355.688C365.852 355.453 365.637 355.238 365.285 355.043ZM406.301 355.336C406.379 355.609 406.594 355.824 406.945 355.98C406.867 355.785 406.652 355.57 406.301 355.336ZM364.934 356.332V355.688H364.641L364.934 356.332ZM369.797 356.332L370.148 357.621L370.793 356.625L370.441 355.98L369.797 356.332ZM361.418 356.977H362.062V356.332H361.77L361.418 356.977ZM362.707 356.332C363.215 356.801 363.859 357.113 364.641 357.27L362.707 356.332ZM365.93 356.332V357.914C366.438 357.523 366.867 356.996 367.219 356.332L366.223 356.625L365.93 356.332ZM427.629 358.91C427.668 359.184 427.883 359.398 428.273 359.555C428.195 359.32 427.98 359.105 427.629 358.91ZM367.512 359.203L367.863 361.488L369.152 361.137L368.801 361.488L368.156 362.777C367.844 361.762 367.629 360.57 367.512 359.203ZM426.984 361.137C427.062 361.371 427.277 361.586 427.629 361.781C427.59 361.508 427.375 361.293 426.984 361.137ZM400.148 362.133V361.488H399.855L400.148 362.133ZM406.008 362.426C406.047 362.738 406.262 362.953 406.652 363.07C406.574 362.875 406.359 362.66 406.008 362.426ZM369.445 362.777L369.797 364.711L369.152 363.422L369.445 362.777ZM370.793 362.777C371.027 362.816 371.242 363.031 371.438 363.422L370.793 362.777ZM361.77 363.07C362.199 363.5 362.512 364.047 362.707 364.711L361.77 363.07ZM400.148 363.422C400.227 363.891 400.441 364.32 400.793 364.711C400.754 364.242 400.539 363.812 400.148 363.422ZM426.691 363.422V364.066H426.984V363.422H426.691ZM365.285 364.066C365.754 365.004 366.184 366.078 366.574 367.289L365.578 365.707L365.285 364.066ZM367.512 364.711C367.98 365.727 368.312 366.801 368.508 367.934C368.273 367.504 367.941 367.289 367.512 367.289L368.156 366.352L367.512 364.711ZM401.789 366C401.555 365.961 401.34 365.746 401.145 365.355L401.789 366ZM369.797 366L370.148 369.223C369.719 368.598 369.387 367.855 369.152 366.996C369.504 366.762 369.719 366.43 369.797 366ZM399.504 367.289V366.645H399.211L399.504 367.289ZM406.301 366.645L406.652 367.289V366.645H406.301ZM363.645 366.645C364.152 367.074 364.582 367.621 364.934 368.285L363.645 366.645ZM374.66 366.996L374.953 367.934V366.996H374.66ZM371.086 366.996L371.73 367.934C371.418 367.738 371.203 367.426 371.086 366.996ZM362.062 367.934L363 368.93L362.062 370.863C362.141 370.082 362.355 369.32 362.707 368.578L362.062 367.934ZM400.148 369.223V368.578H399.855L400.148 369.223ZM365.578 368.578C366.594 368.852 367.57 369.398 368.508 370.219C367.766 369.867 367.004 369.652 366.223 369.574L367.219 371.508C366.477 370.688 365.93 369.711 365.578 368.578ZM363.645 368.93L364.289 370.512L363.996 371.156L363.645 368.93ZM426.34 370.512C426.535 370.98 426.867 371.41 427.336 371.801C427.18 371.332 426.848 370.902 426.34 370.512ZM406.652 371.508V370.863H406.301L406.652 371.508ZM374.309 371.801H374.953V371.156H374.66L374.309 371.801ZM371.086 371.508C371.398 371.703 371.613 372.016 371.73 372.445L371.086 371.508ZM374.953 372.152C375.031 372.426 375.246 372.641 375.598 372.797C375.559 372.484 375.344 372.27 374.953 372.152ZM362.062 372.152L364.641 372.797L361.77 373.734L361.418 372.445H362.062V372.152ZM365.578 372.445L366.223 373.734C365.949 373.422 365.734 372.992 365.578 372.445ZM368.801 373.09L368.508 375.023L367.512 373.09L368.508 372.445L368.801 373.09ZM399.855 372.797V373.441H400.148V372.797H399.855ZM375.598 373.734V373.09H375.305L375.598 373.734ZM405.363 374.379V375.023L406.008 374.73L405.363 374.379ZM363.996 374.379L365.285 374.73L365.93 374.379L364.289 375.023L363.996 374.379ZM366.223 374.73C367.121 375.121 367.766 375.863 368.156 376.957C367.023 376.645 366.379 375.902 366.223 374.73ZM427.336 376.02V375.375H426.984L427.336 376.02ZM359.484 376.957H360.129L359.836 377.602L359.484 376.957ZM369.797 377.309C370.07 377.621 370.285 378.051 370.441 378.598L369.797 377.309ZM365.93 377.602L367.512 377.953L368.156 377.602L366.574 378.598C366.262 378.402 366.047 378.07 365.93 377.602ZM407.297 377.953V378.598L407.941 378.246L407.297 377.953ZM425.695 377.953V378.598H426.047V377.953H425.695ZM359.484 377.953C359.719 377.992 359.934 378.207 360.129 378.598L359.836 378.949L359.484 377.953ZM375.949 378.949V378.246H375.598L375.949 378.949ZM414.094 379.594V378.949H413.742L414.094 379.594ZM415.383 379.594V378.949H415.031L415.383 379.594ZM417.609 378.949C417.688 379.223 417.902 379.438 418.254 379.594C418.215 379.281 418 379.066 417.609 378.949ZM422.121 379.594V378.949H421.828L422.121 379.594ZM397.277 379.242C397.316 379.516 397.531 379.73 397.922 379.887C397.844 379.691 397.629 379.477 397.277 379.242ZM417.316 379.887V379.242H416.965L417.316 379.887ZM366.574 379.594C366.34 379.672 366.125 379.887 365.93 380.238C366.203 380.16 366.418 379.945 366.574 379.594ZM411.809 379.594L410.812 380.531C411.32 380.375 411.652 380.062 411.809 379.594ZM418.898 379.594C418.938 380.023 419.152 380.453 419.543 380.883L418.898 379.594ZM422.766 379.594L421.828 380.531C422.414 380.375 422.727 380.062 422.766 379.594ZM376.242 380.531V379.887H375.949L376.242 380.531ZM388.195 379.887C388.312 380.121 388.527 380.336 388.84 380.531C388.801 380.258 388.586 380.043 388.195 379.887ZM395.344 380.531H395.988V379.887H395.637L395.344 380.531ZM396.926 380.531V379.887H396.633L396.926 380.531ZM406.652 380.531H407.297V379.887H406.945L406.652 380.531ZM414.094 379.887L413.742 380.883H414.387V379.887H414.094ZM415.031 379.887C415.109 380.316 415.324 380.648 415.676 380.883L415.031 379.887ZM421.184 379.887L420.188 380.883C420.695 380.727 421.027 380.395 421.184 379.887ZM417.961 380.238C418.039 380.434 418.254 380.648 418.605 380.883C418.527 380.57 418.312 380.355 417.961 380.238ZM413.391 385.043L414.387 386.332C413.879 386.098 413.547 385.668 413.391 385.043ZM434.074 385.336C435.168 385.961 435.715 386.938 435.715 388.266L435.07 391.84C434.523 390.941 434.191 389.965 434.074 388.91L434.426 386.332L434.074 385.336ZM408.879 386.625C409.348 387.406 409.68 388.266 409.875 389.203C409.211 389.867 408.566 390.629 407.941 391.488C407.707 390.707 407.277 389.848 406.652 388.91C407.473 388.363 408.215 387.602 408.879 386.625ZM362.062 387.914C363.547 388.266 364.719 389.125 365.578 390.492L362.707 388.266L359.484 390.844C360.148 389.789 361.008 388.812 362.062 387.914ZM368.801 387.914L369.445 389.555L369.152 390.199C369.895 389.691 370.656 389.047 371.438 388.266L373.02 387.914L373.371 388.266C373.293 389.516 372.746 390.16 371.73 390.199L368.156 390.844L366.867 389.203L368.801 387.914ZM377.531 387.914C378.078 388.266 378.508 388.812 378.82 389.555L376.887 388.91L376.242 389.203L376.594 390.844L374.953 390.492C375.656 389.633 376.516 388.773 377.531 387.914ZM382.746 388.266L385.324 388.559L384.973 390.844L383.684 388.91L380.754 391.137L382.746 388.266ZM387.551 388.266C388.137 388.578 388.566 389.105 388.84 389.848L389.836 388.91L391.418 388.559C391.066 389.066 390.539 389.496 389.836 389.848L387.551 391.488V389.555H387.258L386.262 389.848L387.551 388.266ZM393.41 388.266L394.699 388.559C394.348 389.574 393.801 390.434 393.059 391.137C392.863 390.355 392.551 389.711 392.121 389.203L393.41 388.266ZM397.57 388.266L398.215 389.203L397.57 391.488L396.926 390.492L397.57 388.266ZM402.727 388.266H405.363L404.719 390.844L402.727 389.203L399.855 390.844L402.727 388.266ZM412.453 388.559L413.742 388.91L412.453 391.84C412.297 391.02 411.965 390.258 411.457 389.555L412.453 388.559ZM416.027 388.559L417.609 388.91L416.672 391.84C416.281 390.824 416.066 389.73 416.027 388.559ZM420.188 388.559C420.617 388.754 420.949 389.086 421.184 389.555C420.871 390.258 420.441 390.902 419.895 391.488L420.188 388.559ZM425.051 388.559L427.336 389.203L426.34 391.488L425.695 388.91L422.766 391.84C423.312 390.668 424.074 389.574 425.051 388.559ZM425.402 261.293L426.984 266.977L427.512 272.25C427.082 270.688 426.73 268.93 426.457 266.977L425.402 261.293ZM531.691 264.809C532.121 264.848 532.473 265.141 532.746 265.688C532.355 265.609 532.004 265.316 531.691 264.809ZM517.102 270.492C518.312 272.094 520.051 273.402 522.316 274.418L519.211 275.297L517.102 270.492ZM499.934 284.496L502.512 284.906L485.871 326.039C485.129 327.875 484.602 329.906 484.289 332.133V336.996L484.816 337.875L484.289 338.285L484.816 339.164L485.344 352.289L485.871 353.578L487.395 371.977C487.316 373.148 486.984 374.32 486.398 375.492L470.227 376.781L469.172 375.902L466.066 346.605C465.402 346.215 465.051 345.766 465.012 345.258L466.594 340.453L466.066 340.043V335.648L465.012 328.207L478.02 298.031L480.129 291.469L483.234 285.785L490.031 284.906L491.555 285.375L499.934 284.496ZM454.582 286.664L457.16 287.074L458.742 286.664H459.797L460.852 288.832L470.227 304.184L462.902 321.234L462.375 323.402C461.32 322.738 460.285 321.859 459.27 320.766L450.422 305.062L446.789 300.199L444.152 294.516L440.52 289.711L441.047 287.543H447.785L454.582 286.664ZM437.883 335.238C438.625 337.152 439.152 339.477 439.465 342.211L445.734 389.906C444.836 388.461 444.133 386.84 443.625 385.043L437.883 335.238Z" fill="white"/>
</svg>
